<svg id="Layer_1" data-name="Layer 1" xmlns="http://www.w3.org/2000/svg" viewBox="0 0 1472 1322"><defs><style>.cls-1{fill:#fff;}.cls-2{fill:#263238;}.cls-3{fill:#bdbdbd;}.cls-4{fill:#4fc3f7;}.cls-5{fill:#fafafa;}.cls-6,.cls-9{fill:none;}.cls-6{stroke:#000;stroke-linecap:round;stroke-linejoin:round;stroke-width:0;}.cls-7{fill:#37474f;}.cls-8{fill:#039be5;}</style></defs><title>spaceman2</title><g id="_Grupp_" data-name="&lt;Grupp&gt;"><g id="_Grupp_2" data-name="&lt;Grupp&gt;"><g id="_Grupp_3" data-name="&lt;Grupp&gt;"><g id="_Grupp_4" data-name="&lt;Grupp&gt;"><path id="_Bana_" data-name="&lt;Bana&gt;" class="cls-1" d="M97.87,572.46,49,564.41a22.87,22.87,0,0,1-19.12-23.62l.06-1.42A22.87,22.87,0,0,1,57.15,518l48.79,9.47A22.88,22.88,0,0,1,124,545.58h0A22.86,22.86,0,0,1,97.87,572.46Z" transform="translate(36.5 1.28)"/></g><g id="_Grupp_5" data-name="&lt;Grupp&gt;"><path id="_Stansad_bana_" data-name="&lt;Stansad bana&gt;" class="cls-2" d="M101.58,583.56a33.73,33.73,0,0,1-5.47-.45h0l-48.86-8.05a33.67,33.67,0,0,1-28.14-34.77l.06-1.42a33.67,33.67,0,0,1,40-31.49L108,516.86a33.66,33.66,0,0,1-6.42,66.7Zm-2-21.75a12.07,12.07,0,0,0,4.27-23.76l-48.8-9.48a12.07,12.07,0,0,0-14.36,11.3l-.06,1.42a12.09,12.09,0,0,0,10.09,12.47Z" transform="translate(36.5 1.28)"/></g></g><g id="_Grupp_6" data-name="&lt;Grupp&gt;"><g id="_Grupp_7" data-name="&lt;Grupp&gt;"><path id="_Bana_2" data-name="&lt;Bana&gt;" class="cls-1" d="M98.32,514.47,29.77,494A22.88,22.88,0,0,1,13.9,467.59l1.7-8.49a22.86,22.86,0,0,1,27.83-17.72l69.88,17a22.86,22.86,0,0,1,16.75,27.83l-3,11.95A22.86,22.86,0,0,1,98.32,514.47Z" transform="translate(36.5 1.28)"/></g><g id="_Grupp_8" data-name="&lt;Grupp&gt;"><path id="_Stansad_bana_2" data-name="&lt;Stansad bana&gt;" class="cls-2" d="M104.93,526.25a34.11,34.11,0,0,1-9.7-1.43h0L26.68,504.34A33.51,33.51,0,0,1,3.32,465.47L5,457a33.65,33.65,0,0,1,41-26.09l69.88,17a33.65,33.65,0,0,1,24.66,41l-3,12a33.72,33.72,0,0,1-32.56,25.41Zm-3.52-22.12a12.05,12.05,0,0,0,15.16-8.6l3-11.95a12.08,12.08,0,0,0-8.85-14.7l-69.87-17a12.09,12.09,0,0,0-14.7,9.36l-1.7,8.49a12,12,0,0,0,8.38,13.94Z" transform="translate(36.5 1.28)"/></g></g><g id="_Grupp_9" data-name="&lt;Grupp&gt;"><g id="_Grupp_10" data-name="&lt;Grupp&gt;"><path id="_Bana_3" data-name="&lt;Bana&gt;" class="cls-1" d="M137.47,400.53,82.31,375a22.86,22.86,0,0,0-29.87,10.15l-2.92,5.59a22.86,22.86,0,0,0,11,31.51l55.83,24.66a22.88,22.88,0,0,0,29.86-11l2.25-4.71A22.87,22.87,0,0,0,137.47,400.53Z" transform="translate(36.5 1.28)"/></g><g id="_Grupp_11" data-name="&lt;Grupp&gt;"><path id="_Stansad_bana_3" data-name="&lt;Stansad bana&gt;" class="cls-2" d="M125.71,459.69a33.89,33.89,0,0,1-13.7-2.91L56.18,432.12A33.64,33.64,0,0,1,40,385.74l2.92-5.59a33.62,33.62,0,0,1,44-14.95L142,390.74h0a33.67,33.67,0,0,1,16.21,45.1L156,440.55A33.52,33.52,0,0,1,125.71,459.69Zm-53-76A12,12,0,0,0,62,390.15l-2.93,5.59a12.09,12.09,0,0,0,5.82,16.64L120.73,437a12,12,0,0,0,15.76-5.82l2.26-4.7a12.07,12.07,0,0,0-5.81-16.18h0L77.78,384.79A12.12,12.12,0,0,0,72.7,383.67Z" transform="translate(36.5 1.28)"/></g></g><g id="_Grupp_12" data-name="&lt;Grupp&gt;"><g id="_Grupp_13" data-name="&lt;Grupp&gt;"><path id="_Bana_4" data-name="&lt;Bana&gt;" class="cls-1" d="M449.72,534.47,271.77,482l-39.13,85,223,113.25S492.59,574.61,449.72,534.47Z" transform="translate(36.5 1.28)"/></g><g id="_Grupp_14" data-name="&lt;Grupp&gt;"><polygon id="_Bana_5" data-name="&lt;Bana&gt;" class="cls-3" points="297.41 536.75 468.55 588.7 468.55 666.8 281.54 567.02 297.41 536.75"/></g><g id="_Grupp_15" data-name="&lt;Grupp&gt;"><path id="_Stansad_bana_4" data-name="&lt;Stansad bana&gt;" class="cls-2" d="M455.64,695.41a15.08,15.08,0,0,1-6.84-1.64l-223-113.24a15.1,15.1,0,0,1-6.88-19.79l39.13-85a15.09,15.09,0,0,1,18-8.17L454,520a15.11,15.11,0,0,1,6.06,3.46c21.5,20.14,29.48,54.06,23.7,100.85a325.63,325.63,0,0,1-13.85,61,15.12,15.12,0,0,1-14.26,10.12ZM252.45,560.16l194,98.5c8.61-32.53,16.85-86.61-4.71-110.8L280,500.22Z" transform="translate(36.5 1.28)"/></g></g><g id="_Grupp_16" data-name="&lt;Grupp&gt;"><g id="_Grupp_17" data-name="&lt;Grupp&gt;"><path id="_Bana_6" data-name="&lt;Bana&gt;" class="cls-1" d="M271.34,484.92l-63.21-130.5A23.9,23.9,0,0,0,175.22,345h0a23.91,23.91,0,0,0-11.09,27.39l15.42,53.33Z" transform="translate(36.5 1.28)"/></g><g id="_Grupp_18" data-name="&lt;Grupp&gt;"><path id="_Stansad_bana_5" data-name="&lt;Stansad bana&gt;" class="cls-2" d="M271.34,495.71a10.83,10.83,0,0,1-5.85-1.72l-91.79-59.2a10.78,10.78,0,0,1-4.52-6.07l-15.42-53.33a34.7,34.7,0,0,1,63.88-26.09l.21.41,63.21,130.5a10.79,10.79,0,0,1-9.72,15.5Zm-82.55-76.87L244.86,455l-46.32-95.63a13.11,13.11,0,0,0-24,10Z" transform="translate(36.5 1.28)"/></g></g><g id="_Grupp_19" data-name="&lt;Grupp&gt;"><g id="_Grupp_20" data-name="&lt;Grupp&gt;"><path id="_Bana_7" data-name="&lt;Bana&gt;" d="M62.62,500.57a21.34,21.34,0,0,1,3.29.17,21.17,21.17,0,0,1-3.31-7.47l-.4.11c-2.1.61-4.13,1.31-6.15,2A17.45,17.45,0,0,1,62.62,500.57Z" transform="translate(36.5 1.28)"/></g></g><g id="_Grupp_21" data-name="&lt;Grupp&gt;"><g id="_Grupp_22" data-name="&lt;Grupp&gt;"><path id="_Bana_8" data-name="&lt;Bana&gt;" class="cls-1" d="M365.1,509.54s10.24,56.88-34.89,95.15" transform="translate(36.5 1.28)"/></g><g id="_Grupp_23" data-name="&lt;Grupp&gt;"><path id="_Bana_9" data-name="&lt;Bana&gt;" class="cls-2" d="M330.22,615.48a10.79,10.79,0,0,1-7-19c39.93-33.86,31.34-84.5,31.25-85a10.8,10.8,0,1,1,21.25-3.83c.46,2.58,10.77,63.49-38.54,105.3A10.75,10.75,0,0,1,330.22,615.48Z" transform="translate(36.5 1.28)"/></g></g><g id="_Grupp_24" data-name="&lt;Grupp&gt;"><g id="_Grupp_25" data-name="&lt;Grupp&gt;"><path id="_Bana_10" data-name="&lt;Bana&gt;" class="cls-1" d="M271.77,482c-13.22-16.76-39.4-51.57-56.08-57.14C174,411,137.9,400.53,137.9,400.53S77,445.29,112.7,575.86c0,0,72.21,31.8,129.79-10.13Z" transform="translate(36.5 1.28)"/></g><g id="_Grupp_26" data-name="&lt;Grupp&gt;"><path id="_Bana_11" data-name="&lt;Bana&gt;" class="cls-3" d="M111.25,503.07s55.34,31,134.49,20.69l-13.1,43.29S129.4,594.5,114.45,581.16,93.89,500.35,111.25,503.07Z" transform="translate(36.5 1.28)"/></g><g id="_Grupp_27" data-name="&lt;Grupp&gt;"><path id="_Stansad_bana_6" data-name="&lt;Stansad bana&gt;" class="cls-2" d="M172.38,598.31a172.9,172.9,0,0,1-64-12.57,10.8,10.8,0,0,1-6.06-7c-37.24-136.16,26.49-184.87,29.22-186.87a10.77,10.77,0,0,1,9.38-1.68c.37.11,36.78,10.64,78.22,24.49,17,5.69,37,29.9,57.73,56.36l3.41,4.34A10.8,10.8,0,0,1,282,485.6l-29.28,83.7a10.9,10.9,0,0,1-3.84,5.16C223.67,592.79,196.25,598.31,172.38,598.31Zm-50.67-30.55c15.76,5.55,68.43,20.51,111.73-8.86L259.63,484C249,470.4,224.45,439.2,212.27,435.13c-31.43-10.51-59.9-19.07-71.66-22.55C129,424.34,96,468.22,121.71,567.76Z" transform="translate(36.5 1.28)"/></g></g></g><g id="_Grupp_28" data-name="&lt;Grupp&gt;"><g id="_Grupp_29" data-name="&lt;Grupp&gt;"><g id="_Grupp_30" data-name="&lt;Grupp&gt;"><path id="_Bana_12" data-name="&lt;Bana&gt;" class="cls-1" d="M1302.13,572.46l48.86-8.05a22.87,22.87,0,0,0,19.12-23.62l-.06-1.42a22.87,22.87,0,0,0-27.2-21.39l-48.79,9.47a22.88,22.88,0,0,0-18.1,18.13h0A22.86,22.86,0,0,0,1302.13,572.46Z" transform="translate(36.5 1.28)"/></g><g id="_Grupp_31" data-name="&lt;Grupp&gt;"><path id="_Stansad_bana_7" data-name="&lt;Stansad bana&gt;" class="cls-2" d="M1274.3,573.38a33.65,33.65,0,0,1,17.7-56.52l48.79-9.48a33.67,33.67,0,0,1,40,31.49l.06,1.42a33.67,33.67,0,0,1-28.14,34.77l-48.86,8.05h0a33.63,33.63,0,0,1-29.59-9.73Zm74.94-19.62a12.09,12.09,0,0,0,10.09-12.47l-.06-1.42a12.07,12.07,0,0,0-14.36-11.3l-48.8,9.48a12.07,12.07,0,0,0,4.27,23.76Z" transform="translate(36.5 1.28)"/></g></g><g id="_Grupp_32" data-name="&lt;Grupp&gt;"><g id="_Grupp_33" data-name="&lt;Grupp&gt;"><path id="_Bana_13" data-name="&lt;Bana&gt;" class="cls-1" d="M1301.68,514.47,1370.23,494a22.88,22.88,0,0,0,15.87-26.41l-1.7-8.49a22.86,22.86,0,0,0-27.83-17.72l-69.88,17a22.86,22.86,0,0,0-16.75,27.83l3,11.95A22.86,22.86,0,0,0,1301.68,514.47Z" transform="translate(36.5 1.28)"/></g><g id="_Grupp_34" data-name="&lt;Grupp&gt;"><path id="_Stansad_bana_8" data-name="&lt;Stansad bana&gt;" class="cls-2" d="M1278.52,521.84a33.36,33.36,0,0,1-16-21l-3-12a33.65,33.65,0,0,1,24.66-41l69.88-17A33.65,33.65,0,0,1,1395,457l1.7,8.49a33.51,33.51,0,0,1-23.36,38.87l-68.55,20.48h0a34.11,34.11,0,0,1-9.7,1.43A33.44,33.44,0,0,1,1278.52,521.84Zm88.62-38.19a12,12,0,0,0,8.38-13.94l-1.7-8.49a12.09,12.09,0,0,0-14.7-9.36l-69.87,17a12.08,12.08,0,0,0-8.85,14.7l3,11.95a12.05,12.05,0,0,0,15.16,8.6Z" transform="translate(36.5 1.28)"/></g></g><g id="_Grupp_35" data-name="&lt;Grupp&gt;"><g id="_Grupp_36" data-name="&lt;Grupp&gt;"><path id="_Bana_14" data-name="&lt;Bana&gt;" class="cls-1" d="M1262.53,400.53,1317.69,375a22.86,22.86,0,0,1,29.87,10.15l2.92,5.59a22.86,22.86,0,0,1-11,31.51l-55.83,24.66a22.88,22.88,0,0,1-29.86-11l-2.25-4.71A22.87,22.87,0,0,1,1262.53,400.53Z" transform="translate(36.5 1.28)"/></g><g id="_Grupp_37" data-name="&lt;Grupp&gt;"><path id="_Stansad_bana_9" data-name="&lt;Stansad bana&gt;" class="cls-2" d="M1244,440.55l-2.26-4.71a33.67,33.67,0,0,1,16.21-45.1h0l55.17-25.54a33.62,33.62,0,0,1,44,14.95l2.92,5.59a33.64,33.64,0,0,1-16.22,46.38L1288,456.78a33.89,33.89,0,0,1-13.7,2.91A33.52,33.52,0,0,1,1244,440.55Zm78.18-55.76-55.16,25.54h0a12.07,12.07,0,0,0-5.81,16.18l2.26,4.7a12,12,0,0,0,15.76,5.82l55.83-24.65a12.09,12.09,0,0,0,5.82-16.64l-2.93-5.59a12.06,12.06,0,0,0-15.77-5.36Z" transform="translate(36.5 1.28)"/></g></g><g id="_Grupp_38" data-name="&lt;Grupp&gt;"><g id="_Grupp_39" data-name="&lt;Grupp&gt;"><path id="_Bana_15" data-name="&lt;Bana&gt;" class="cls-1" d="M950.28,534.47l178-52.44,39.13,85-223,113.25S907.41,574.61,950.28,534.47Z" transform="translate(36.5 1.28)"/></g><g id="_Grupp_40" data-name="&lt;Grupp&gt;"><polygon id="_Bana_16" data-name="&lt;Bana&gt;" class="cls-3" points="1174.86 536.75 1002.99 588.7 1002.99 666.8 1190.37 567.02 1174.86 536.75"/></g><g id="_Grupp_41" data-name="&lt;Grupp&gt;"><path id="_Stansad_bana_10" data-name="&lt;Stansad bana&gt;" class="cls-2" d="M938.73,694.32a15.12,15.12,0,0,1-8.63-9,325.63,325.63,0,0,1-13.85-61c-5.78-46.79,2.2-80.71,23.7-100.85A15.11,15.11,0,0,1,946,520l178-52.44a15.09,15.09,0,0,1,18,8.17l39.13,85a15.1,15.1,0,0,1-6.88,19.79l-223,113.24a15.08,15.08,0,0,1-12.47.55ZM1120,500.22,958.31,547.86c-21.56,24.19-13.32,78.27-4.71,110.8l193.95-98.5Z" transform="translate(36.5 1.28)"/></g></g><g id="_Grupp_42" data-name="&lt;Grupp&gt;"><g id="_Grupp_43" data-name="&lt;Grupp&gt;"><path id="_Bana_17" data-name="&lt;Bana&gt;" class="cls-1" d="M1128.66,484.92l63.21-130.5a23.9,23.9,0,0,1,32.91-9.42h0a23.91,23.91,0,0,1,11.09,27.39l-15.42,53.33Z" transform="translate(36.5 1.28)"/></g><g id="_Grupp_44" data-name="&lt;Grupp&gt;"><path id="_Stansad_bana_11" data-name="&lt;Stansad bana&gt;" class="cls-2" d="M1121.5,493a10.8,10.8,0,0,1-2.56-12.79l63.21-130.5.21-.41a34.7,34.7,0,0,1,63.88,26.09l-15.42,53.33a10.78,10.78,0,0,1-4.52,6.07L1134.51,494a10.81,10.81,0,0,1-13-1Zm104-123.61a13.11,13.11,0,0,0-24-10L1155.14,455l56.07-36.15Z" transform="translate(36.5 1.28)"/></g></g><g id="_Grupp_45" data-name="&lt;Grupp&gt;"><g id="_Grupp_46" data-name="&lt;Grupp&gt;"><path id="_Bana_18" data-name="&lt;Bana&gt;" d="M1337.38,500.57a21.34,21.34,0,0,0-3.29.17,21.17,21.17,0,0,0,3.31-7.47l.4.11c2.1.61,4.13,1.31,6.15,2A17.45,17.45,0,0,0,1337.38,500.57Z" transform="translate(36.5 1.28)"/></g></g><g id="_Grupp_47" data-name="&lt;Grupp&gt;"><g id="_Grupp_48" data-name="&lt;Grupp&gt;"><path id="_Bana_19" data-name="&lt;Bana&gt;" class="cls-1" d="M1034.9,509.54s-10.24,56.88,34.89,95.15" transform="translate(36.5 1.28)"/></g><g id="_Grupp_49" data-name="&lt;Grupp&gt;"><path id="_Bana_20" data-name="&lt;Bana&gt;" class="cls-2" d="M1069.78,615.48a10.79,10.79,0,0,0,7-19c-39.93-33.86-31.34-84.5-31.25-85a10.8,10.8,0,1,0-21.25-3.83c-.46,2.58-10.77,63.49,38.54,105.3A10.75,10.75,0,0,0,1069.78,615.48Z" transform="translate(36.5 1.28)"/></g></g><g id="_Grupp_50" data-name="&lt;Grupp&gt;"><g id="_Grupp_51" data-name="&lt;Grupp&gt;"><path id="_Bana_21" data-name="&lt;Bana&gt;" class="cls-1" d="M1128.23,482c13.22-16.76,39.4-51.57,56.08-57.14,41.71-13.94,77.79-24.36,77.79-24.36s60.91,44.76,25.2,175.33c0,0-72.21,31.8-129.79-10.13Z" transform="translate(36.5 1.28)"/></g><g id="_Grupp_52" data-name="&lt;Grupp&gt;"><path id="_Bana_22" data-name="&lt;Bana&gt;" class="cls-3" d="M1288.75,503.07s-55.34,31-134.49,20.69l13.1,43.29s103.24,27.45,118.19,14.11S1306.11,500.35,1288.75,503.07Z" transform="translate(36.5 1.28)"/></g><g id="_Grupp_53" data-name="&lt;Grupp&gt;"><path id="_Stansad_bana_12" data-name="&lt;Stansad bana&gt;" class="cls-2" d="M1151.16,574.46a10.9,10.9,0,0,1-3.84-5.16L1118,485.6a10.8,10.8,0,0,1,1.71-10.25l3.41-4.34c20.72-26.46,40.73-50.67,57.73-56.36,41.44-13.85,77.85-24.38,78.22-24.49a10.77,10.77,0,0,1,9.38,1.68c2.73,2,66.46,50.71,29.22,186.87a10.8,10.8,0,0,1-6.06,7,172.9,172.9,0,0,1-64,12.57C1203.75,598.31,1176.33,592.79,1151.16,574.46Zm108.23-161.88c-11.76,3.48-40.23,12-71.66,22.55-12.18,4.07-36.68,35.27-47.36,48.91l26.19,74.86c43.3,29.37,96,14.41,111.73,8.86C1304,468.22,1271,424.34,1259.39,412.58Z" transform="translate(36.5 1.28)"/></g></g></g><g id="_Grupp_54" data-name="&lt;Grupp&gt;"><g id="_Grupp_55" data-name="&lt;Grupp&gt;"><ellipse id="_Bana_23" data-name="&lt;Bana&gt;" class="cls-3" cx="738" cy="1175.91" rx="487.68" ry="65.07"/></g><g id="_Grupp_56" data-name="&lt;Grupp&gt;"><g id="_Grupp_57" data-name="&lt;Grupp&gt;"><g id="_Grupp_58" data-name="&lt;Grupp&gt;"><path id="_Bana_24" data-name="&lt;Bana&gt;" class="cls-4" d="M501.2,705.16l-55.64-10.71s-31.22-101.15,19.32-195l81.92,26.63Z" transform="translate(36.5 1.28)"/></g><g id="_Grupp_59" data-name="&lt;Grupp&gt;"><path id="_Stansad_bana_13" data-name="&lt;Stansad bana&gt;" class="cls-2" d="M510.74,720.18,435.48,705.7l-2.29-7.43c-1.34-4.34-32.22-107.45,20.28-204.93l5.13-9.52,103.74,33.72ZM456,683.27l35.62,6.86,39.59-155.46-59.83-19.44C437.64,586.32,450.62,660.16,456,683.27Z" transform="translate(36.5 1.28)"/></g></g><g id="_Grupp_60" data-name="&lt;Grupp&gt;"><g id="_Grupp_61" data-name="&lt;Grupp&gt;"><path id="_Bana_25" data-name="&lt;Bana&gt;" class="cls-4" d="M915.18,705.16l55.64-10.71s31.22-101.15-19.31-195l-81.93,26.63Z" transform="translate(36.5 1.28)"/></g><g id="_Grupp_62" data-name="&lt;Grupp&gt;"><path id="_Stansad_bana_14" data-name="&lt;Stansad bana&gt;" class="cls-2" d="M905.64,720.18,854,517.54l103.74-33.72,5.13,9.52c52.5,97.48,21.62,200.59,20.28,204.93l-2.29,7.43ZM885.13,534.67l39.59,155.46,35.61-6.85c5.37-23.15,18.27-97.18-15.37-168Z" transform="translate(36.5 1.28)"/></g></g><g id="_Grupp_63" data-name="&lt;Grupp&gt;"><g id="_Grupp_64" data-name="&lt;Grupp&gt;"><g id="_Grupp_65" data-name="&lt;Grupp&gt;"><polygon id="_Bana_26" data-name="&lt;Bana&gt;" class="cls-1" points="554.62 840.1 501.49 1094.2 645.71 1135.22 674.09 967.68 554.62 840.1"/></g><g id="_Grupp_66" data-name="&lt;Grupp&gt;"><path id="_Bana_27" data-name="&lt;Bana&gt;" class="cls-3" d="M522.66,887.16s16,60.66,56.69,94.35L551,1106.16l64.72,6.9,21.86-146.67Z" transform="translate(36.5 1.28)"/></g><g id="_Grupp_67" data-name="&lt;Grupp&gt;"><path id="_Stansad_bana_15" data-name="&lt;Stansad bana&gt;" class="cls-2" d="M609.21,1144.72a10.61,10.61,0,0,1-3-.41L462,1103.3a10.79,10.79,0,0,1-7.61-12.59l53.12-254.1A10.8,10.8,0,0,1,526,831.44L645.47,959a10.79,10.79,0,0,1,2.76,9.18l-28.38,167.54a10.77,10.77,0,0,1-10.64,9Zm-131.6-59.44,123,35,25.48-150.4L524.43,861.35Z" transform="translate(36.5 1.28)"/></g></g><g id="_Grupp_68" data-name="&lt;Grupp&gt;"><g id="_Grupp_69" data-name="&lt;Grupp&gt;"><path id="_Bana_28" data-name="&lt;Bana&gt;" class="cls-5" d="M378.9,1159.58s8-94.87,125-94.87,126.74,95,126.74,95S518,1199.26,378.9,1159.58Z" transform="translate(36.5 1.28)"/></g><g id="_Grupp_70" data-name="&lt;Grupp&gt;"><path id="_Bana_29" data-name="&lt;Bana&gt;" class="cls-3" d="M494.1,1082.24s56.07,28.26,57.19,92.86l77.39-23.18-47.53-64S513.5,1062.93,494.1,1082.24Z" transform="translate(36.5 1.28)"/></g><g id="_Grupp_71" data-name="&lt;Grupp&gt;"><path id="_Stansad_bana_16" data-name="&lt;Stansad bana&gt;" class="cls-2" d="M506.58,1194.61a482.69,482.69,0,0,1-132.42-18.43,17.27,17.27,0,0,1-12.47-18.06c.1-1.16,2.62-28.67,21.7-55.89,17.52-25,52.64-54.78,120.46-54.78s103.31,29.74,121.24,54.69c19.53,27.17,22.56,54.65,22.68,55.8A17.26,17.26,0,0,1,636.32,1176C633.14,1177.13,582.05,1194.61,506.58,1194.61Zm-107.27-47.49c96.58,23.69,178.38,8.64,210.75.51-7.65-22.84-31.91-65.65-106.21-65.65-42.53,0-73.54,13.49-92.18,40.08A93.53,93.53,0,0,0,399.31,1147.12Z" transform="translate(36.5 1.28)"/></g></g><g id="_Grupp_72" data-name="&lt;Grupp&gt;"><g id="_Grupp_73" data-name="&lt;Grupp&gt;"><polygon id="_Bana_30" data-name="&lt;Bana&gt;" class="cls-1" points="923.97 840.1 977.1 1094.2 832.88 1135.22 804.5 967.68 923.97 840.1"/></g><g id="_Grupp_74" data-name="&lt;Grupp&gt;"><path id="_Bana_31" data-name="&lt;Bana&gt;" class="cls-3" d="M882.93,887.16s-16,60.66-56.69,94.35l28.34,124.65-64.72,6.9L768,966.39Z" transform="translate(36.5 1.28)"/></g><g id="_Grupp_75" data-name="&lt;Grupp&gt;"><path id="_Stansad_bana_17" data-name="&lt;Stansad bana&gt;" class="cls-2" d="M796.38,1144.72a10.77,10.77,0,0,1-10.64-9L757.35,968.19a10.79,10.79,0,0,1,2.77-9.18L879.59,831.44A10.8,10.8,0,0,1,898,836.61l53.12,254.1a10.79,10.79,0,0,1-7.61,12.59l-144.22,41A10.61,10.61,0,0,1,796.38,1144.72ZM779.53,969.86,805,1120.26l123-35L881.15,861.35Z" transform="translate(36.5 1.28)"/></g></g><g id="_Grupp_76" data-name="&lt;Grupp&gt;"><g id="_Grupp_77" data-name="&lt;Grupp&gt;"><path id="_Bana_32" data-name="&lt;Bana&gt;" class="cls-5" d="M1026.69,1159.58s-8-94.87-125-94.87-126.75,95-126.75,95S887.57,1199.26,1026.69,1159.58Z" transform="translate(36.5 1.28)"/></g><g id="_Grupp_78" data-name="&lt;Grupp&gt;"><path id="_Bana_33" data-name="&lt;Bana&gt;" class="cls-3" d="M911.49,1082.24s-56.07,28.26-57.19,92.86l-77.4-23.18,47.54-64S892.09,1062.93,911.49,1082.24Z" transform="translate(36.5 1.28)"/></g><g id="_Grupp_79" data-name="&lt;Grupp&gt;"><path id="_Stansad_bana_18" data-name="&lt;Stansad bana&gt;" class="cls-2" d="M899,1194.61c-75.47,0-126.55-17.48-129.73-18.6a17.26,17.26,0,0,1-11.45-18.07c.12-1.15,3.15-28.63,22.68-55.8,17.93-25,53.52-54.69,121.24-54.69s102.94,29.79,120.46,54.78c19.07,27.22,21.6,54.73,21.69,55.89a17.26,17.26,0,0,1-12.47,18.06A482.59,482.59,0,0,1,899,1194.61Zm-103.46-47c32.35,8.12,114.19,23.18,210.8-.52-7.27-22.79-30.72-65.13-104.6-65.13C827.48,1082,803.21,1124.74,795.54,1147.63Z" transform="translate(36.5 1.28)"/></g></g><g id="_Grupp_80" data-name="&lt;Grupp&gt;"><g id="_Grupp_81" data-name="&lt;Grupp&gt;"><path id="_Bana_34" data-name="&lt;Bana&gt;" class="cls-5" d="M898.31,546.39c-16.17-39-191.2-6.07-191.2-6.07s-173.2-32.92-189.38,6.07c0,0-53.46,63.43-16.39,236.42s164.76,203,207.93,203,168.53-30,205.6-203S898.31,546.39,898.31,546.39Z" transform="translate(36.5 1.28)"/></g><g id="_Grupp_82" data-name="&lt;Grupp&gt;"><path id="_Bana_35" data-name="&lt;Bana&gt;" class="cls-3" d="M566.41,556.64s-34,201.34,43.65,373.84l15.05,12.38L579.35,710l5.16-158.89S570,527.88,566.41,556.64Z" transform="translate(36.5 1.28)"/></g><g id="_Grupp_83" data-name="&lt;Grupp&gt;"><path id="_Bana_36" data-name="&lt;Bana&gt;" class="cls-3" d="M898.31,546.39c-16.17-39-191.2-6.07-191.2-6.07s-7.83-1.49-20.29-3.45c-71.27,5.89-135.51,10.86-145.43,10.46,0,0,112.9,47.65,238.14,45.87,0,0,56.83,148.95-19.41,365.81-3.55,10.09-59.91,26.79-50.85,26.79,43.17,0,168.53-30,205.6-203S898.31,546.39,898.31,546.39Z" transform="translate(36.5 1.28)"/></g><g id="_Grupp_84" data-name="&lt;Grupp&gt;"><path id="_Stansad_bana_19" data-name="&lt;Stansad bana&gt;" class="cls-2" d="M709.27,1003.07c-28.48,0-73.93-10.43-116.1-39.7C538,925.05,501.41,865.53,484.46,786.43c-35.15-164,8.83-235.81,18.39-249,11.59-23,47.9-31,116.91-25.93,39.21,2.91,76.37,9.27,87.37,11.25,11.06-2,48.63-8.34,88.25-11.25,69.6-5.1,106.19,2.9,117.81,25.91,9.59,13.19,53.72,85,18.57,249C914.8,865.53,878.65,925,824.3,963.3,782.65,992.62,737.57,1003.07,709.27,1003.07ZM531,557.43c-2,2.58-46.59,64-12.78,221.76,32.09,149.77,139,189.34,191,189.34,22,0,60.05-8.77,95.15-33.47,47-33.1,78.49-85.54,93.57-155.87C932.32,619,885.61,558.11,885.13,557.54a17.35,17.35,0,0,1-2.68-4.34c-.86-1-13.24-12.94-88.5-6.94-42.86,3.41-83.25,11-83.65,11a17.06,17.06,0,0,1-6.41,0c-.4-.07-40.67-7.66-83.13-11-74.31-5.93-86.35,6-87.15,6.95A14.72,14.72,0,0,1,531,557.43Z" transform="translate(36.5 1.28)"/></g></g><g id="_Grupp_85" data-name="&lt;Grupp&gt;"><g id="_Grupp_86" data-name="&lt;Grupp&gt;"><path id="_Bana_37" data-name="&lt;Bana&gt;" class="cls-1" d="M600.66,527.67s-62.81,198.51,36.93,438.72" transform="translate(36.5 1.28)"/></g><g id="_Grupp_87" data-name="&lt;Grupp&gt;"><path id="_Bana_38" data-name="&lt;Bana&gt;" class="cls-2" d="M625.63,971.36c-52.43-126.27-59.85-241-56.85-314.93,3.27-80.46,18.87-130.57,19.54-132.67L613,531.58l-12.34-3.91,12.35,3.9c-.16.48-15.37,49.61-18.39,126.89-2.79,71.15,4.48,181.47,54.92,303Z" transform="translate(36.5 1.28)"/></g></g><g id="_Grupp_88" data-name="&lt;Grupp&gt;"><g id="_Grupp_89" data-name="&lt;Grupp&gt;"><path id="_Bana_39" data-name="&lt;Bana&gt;" class="cls-2" d="M790.07,971.36l-23.92-9.93C863,728.28,803.31,533.52,802.69,531.58l24.7-7.82c.66,2.1,16.26,52.21,19.53,132.67C849.93,730.4,842.5,845.09,790.07,971.36Z" transform="translate(36.5 1.28)"/></g></g><g id="_Grupp_90" data-name="&lt;Grupp&gt;"><g id="_Grupp_91" data-name="&lt;Grupp&gt;"><path id="_Bana_40" data-name="&lt;Bana&gt;" class="cls-1" d="M831.2,754.91s-62.21,27-123.35,27-123.34-27-123.34-27" transform="translate(36.5 1.28)"/></g><g id="_Grupp_92" data-name="&lt;Grupp&gt;"><path id="_Bana_41" data-name="&lt;Bana&gt;" class="cls-2" d="M707.85,794.88c-63.1,0-125.86-27-128.5-28.09L589.67,743c.59.26,60.57,26,118.18,26S825.44,743.29,826,743l10.32,23.76C833.71,767.93,771,794.88,707.85,794.88Z" transform="translate(36.5 1.28)"/></g></g><g id="_Grupp_93" data-name="&lt;Grupp&gt;"><g id="_Grupp_94" data-name="&lt;Grupp&gt;"><rect id="_Rektangel_" data-name="&lt;Rektangel&gt;" class="cls-4" x="680.8" y="666.42" width="116.12" height="37.56"/><path id="_Stansad_bana_20" data-name="&lt;Stansad bana&gt;" class="cls-2" d="M767.52,709.78H637.21V658H767.52ZM651.4,695.59H753.33V672.23H651.4Z" transform="translate(36.5 1.28)"/></g></g><g id="_Grupp_95" data-name="&lt;Grupp&gt;"><g id="_Grupp_96" data-name="&lt;Grupp&gt;"><path id="_Bana_42" data-name="&lt;Bana&gt;" class="cls-2" d="M628.77,1033.07h-.31c-76.73,0-141-54.2-143.71-56.33-4.68-3.7-5.47-11.43-1.77-16.1s10.48-5.94,15.16-2.24c1,.76,61.71,47.62,130.92,49.56,6,.17,10.66,6.9,10.49,12.86S634.59,1033.07,628.77,1033.07Z" transform="translate(36.5 1.28)"/></g></g><g id="_Grupp_97" data-name="&lt;Grupp&gt;"><g id="_Grupp_98" data-name="&lt;Grupp&gt;"><path id="_Bana_43" data-name="&lt;Bana&gt;" class="cls-2" d="M776.82,1033.07c-5.82,0-10.62-6.51-10.78-12.37s4.52-11.86,10.48-12c69.65-2,130.32-49.8,130.93-50.27a10.76,10.76,0,0,1,15.16,1.53c3.7,4.68,2.9,13.23-1.77,16.93-2.7,2.13-67,56.21-143.71,56.21Z" transform="translate(36.5 1.28)"/></g></g></g><g id="_Grupp_99" data-name="&lt;Grupp&gt;"><g id="_Grupp_100" data-name="&lt;Grupp&gt;"><path id="_Bana_44" data-name="&lt;Bana&gt;" class="cls-6" d="M450.24,764.81h0" transform="translate(36.5 1.28)"/></g></g><g id="_Grupp_101" data-name="&lt;Grupp&gt;"><g id="_Grupp_102" data-name="&lt;Grupp&gt;"><g id="_Grupp_103" data-name="&lt;Grupp&gt;"><path id="_Bana_45" data-name="&lt;Bana&gt;" d="M588,177.19v0Z" transform="translate(36.5 1.28)"/></g></g><g id="_Grupp_104" data-name="&lt;Grupp&gt;"><g id="_Grupp_105" data-name="&lt;Grupp&gt;"><g id="_Grupp_106" data-name="&lt;Grupp&gt;"><path id="_Stansad_bana_21" data-name="&lt;Stansad bana&gt;" class="cls-2" d="M1116.1,414.27h-63.34V188h63.34a50.24,50.24,0,0,1,50.18,50.19V364.09A50.24,50.24,0,0,1,1116.1,414.27ZM1083,384.05h33.12a20,20,0,0,0,20-20V238.18a20,20,0,0,0-20-20H1083Z" transform="translate(36.5 1.28)"/></g></g><g id="_Grupp_107" data-name="&lt;Grupp&gt;"><g id="_Grupp_108" data-name="&lt;Grupp&gt;"><path id="_Stansad_bana_22" data-name="&lt;Stansad bana&gt;" class="cls-2" d="M352,414.27H288.63a50.24,50.24,0,0,1-50.18-50.18V238.18A50.24,50.24,0,0,1,288.63,188H352ZM288.63,218.21a20,20,0,0,0-20,20V364.09a20,20,0,0,0,20,20h33.12V218.21Z" transform="translate(36.5 1.28)"/></g></g><g id="_Grupp_109" data-name="&lt;Grupp&gt;"><g id="_Grupp_110" data-name="&lt;Grupp&gt;"><path id="_Bana_46" data-name="&lt;Bana&gt;" class="cls-5" d="M1030.61,151.24c-77.68-69.35-221.5-92.17-289.92-99.3a367.17,367.17,0,0,0-76.16,0c-68.47,7.13-212.47,29.94-290.16,99.3,0,0-49.4,38.42-49.4,84.39v131c0,46,50,84.39,50,84.39,66.73,59.57,165.5,82.21,252.9,94.76,99,14.22,202.7-1,296.35-35.06,38.52-14,76.49-32.52,106.93-59.7,0,0,48.64-38.42,48.64-84.39v-131C1079.76,189.66,1030.61,151.24,1030.61,151.24Z" transform="translate(36.5 1.28)"/></g><g id="_Grupp_111" data-name="&lt;Grupp&gt;"><path id="_Bana_47" data-name="&lt;Bana&gt;" class="cls-3" d="M1080,301.11V235.63c0-46-49.08-84.39-49.08-84.39-77.68-69.35-221.45-92.17-289.87-99.3a366.66,366.66,0,0,0-58.24-1.41,163.91,163.91,0,0,0-16.11,18.58s219.12-13,286.61,177.64c46.08,130.21-86.57,243.67-187.53,301a672.82,672.82,0,0,0,158.8-37.08c38.52-14,76.41-32.52,106.85-59.7,0,0,48.57-38.42,48.57-84.39Z" transform="translate(36.5 1.28)"/></g><g id="_Grupp_112" data-name="&lt;Grupp&gt;"><path id="_Stansad_bana_23" data-name="&lt;Stansad bana&gt;" class="cls-2" d="M704,568.36a552,552,0,0,1-78.59-5.52c-83.5-12-188.55-34-261.12-98.24a102.52,102.52,0,0,1-8.84-7.64,194,194,0,0,1-18.86-20c-19.15-23.53-28.86-47.2-28.86-70.33v-131c0-51.67,49.59-92.86,55.56-97.62C443.18,67,585.15,42.84,662.74,34.76a385.7,385.7,0,0,1,79.74,0C820,42.84,961.83,67,1041.74,138c5.86,4.7,55.29,45.92,55.29,97.61v131c0,51.73-49.11,93-54.75,97.58-28.11,25-64.81,45.51-112.18,62.74C854.61,554.36,777.73,568.36,704,568.36ZM381.15,433.72h.37l4.92,4.39c65.7,58.65,164.83,79.2,243.85,90.55,91,13.06,190.55,1.24,288-34.2,43.37-15.77,76.51-34.2,101.33-56.35l.79-.67c.4-.31,42.08-33.95,42.08-70.84v-131c0-36.53-42.09-70.46-42.51-70.79l-.87-.72c-75.31-67.23-221-88.84-280.2-95a350.83,350.83,0,0,0-72.59,0c-59.23,6.17-205.13,27.77-280.45,95l-.9.75c-.4.31-42.73,33.94-42.73,70.76v131C342.24,393.92,367.29,421.55,381.15,433.72Z" transform="translate(36.5 1.28)"/></g></g><g id="_Grupp_113" data-name="&lt;Grupp&gt;"><path id="_Bana_48" data-name="&lt;Bana&gt;" class="cls-3" d="M974,209.67c-31.91-19.94-71.43-34.24-110.39-44.47a640.64,640.64,0,0,0-325.08,0c-39,10.22-78.46,24.52-110.38,44.46a31.35,31.35,0,0,0-14.85,26.56V400.58A31.14,31.14,0,0,0,427.92,427c74.22,46.46,169.31,61.62,255.31,68.48,30.73,2.45,61.88-2,92.28-6.36,46.6-6.69,93.19-16.56,137.45-32.86,21.35-7.87,42.27-17.3,61.57-29.43a31,31,0,0,0,14.35-26.24V236.22A31.33,31.33,0,0,0,974,209.67Z" transform="translate(36.5 1.28)"/></g><g id="_Grupp_114" data-name="&lt;Grupp&gt;"><path id="_Bana_49" data-name="&lt;Bana&gt;" class="cls-2" d="M974,192.41c-31.91-19.95-71.43-34.25-110.39-44.48a640.64,640.64,0,0,0-325.08,0c-39,10.23-78.46,24.52-110.38,44.46A31.35,31.35,0,0,0,413.33,219V383.31a31.14,31.14,0,0,0,14.59,26.41c74.22,46.47,169.31,61.62,255.31,68.48,30.73,2.45,61.88-2,92.28-6.36C822.11,465.15,868.7,455.28,913,439c21.35-7.87,42.27-17.3,61.57-29.43a31,31,0,0,0,14.35-26.24V219A31.3,31.3,0,0,0,974,192.41Z" transform="translate(36.5 1.28)"/></g><g id="_Grupp_115" data-name="&lt;Grupp&gt;"><path id="_Bana_50" data-name="&lt;Bana&gt;" class="cls-7" d="M967.14,205.22c-27.08-16.92-63.31-31.28-106.72-42.67a626.2,626.2,0,0,0-317.6,0c-43.4,11.39-77.51,25.74-104.59,42.66-4.85,3-6.18,8.17-6.18,13.74v33.62C525.92,317,696.43,375.83,975.57,362.9V219C975.57,213.38,972,208.25,967.14,205.22Z" transform="translate(36.5 1.28)"/></g><g id="_Grupp_116" data-name="&lt;Grupp&gt;"><g id="_Grupp_117" data-name="&lt;Grupp&gt;"><path id="_Bana_51" data-name="&lt;Bana&gt;" class="cls-4" d="M701.1,13.68c-169.85,0-167.87,48.13-167.87,48.13s27.61,20.88,53.65,80.49c9.77,22.35,28.27,36.77,47.59,46.07,40.82,19.65,92.45,19.65,133.27,0,19.32-9.3,37.82-23.72,47.58-46.07C841.36,82.69,869,61.81,869,61.81S871,13.68,701.1,13.68Z" transform="translate(36.5 1.28)"/></g><g id="_Grupp_118" data-name="&lt;Grupp&gt;"><path id="_Bana_52" data-name="&lt;Bana&gt;" class="cls-8" d="M815.75,142.3c26-59.61,53.65-80.49,53.65-80.49s2-48.13-167.87-48.13c-68.11,0-108.57,7.74-132.63,17a106.55,106.55,0,0,0-18.43,25.73S718.34,22,778.11,74s-77.88,130.65-155.39,92c-24.9-12.43-20.83-4-3.87,13.15a125.21,125.21,0,0,0,16,9.22c40.83,19.65,92.46,19.65,133.28,0C787.48,179.07,806,164.65,815.75,142.3Z" transform="translate(36.5 1.28)"/></g><g id="_Grupp_119" data-name="&lt;Grupp&gt;"><path id="_Stansad_bana_24" data-name="&lt;Stansad bana&gt;" class="cls-2" d="M701.1,216.13A167.34,167.34,0,0,1,628.85,200c-25.94-12.49-44.06-30.17-53.84-52.56-24-55.06-49.4-75.19-49.66-75.39l-4.74-3.69-.32-6.06c-.11-2.77.35-12.68,11.06-23.84C555.4,13.44,612.51.73,701.1.73S846.81,13.44,870.86,38.5c10.71,11.16,11.17,21.07,11,23.84l-.25,6.11-4.88,3.69c-.18.15-25.53,20.28-49.59,75.34-9.78,22.39-27.89,40.07-53.83,52.56A167.38,167.38,0,0,1,701.1,216.13ZM548.53,58.27c10.67,10.7,31,34.9,50.22,78.84C606,153.66,619.89,167,640.08,176.7c37.07,17.84,85,17.84,122,0,20.2-9.72,34.11-23,41.34-39.59,19.16-43.87,39.48-68.06,50.16-78.79C846,48.9,815.89,26.64,701.1,26.64,590.57,26.64,558.64,47.47,550,56.43,549.83,56.64,549.22,57.41,548.53,58.27Z" transform="translate(36.5 1.28)"/></g></g></g><g id="_Grupp_120" data-name="&lt;Grupp&gt;"><g id="_Grupp_121" data-name="&lt;Grupp&gt;"><path id="_Bana_53" data-name="&lt;Bana&gt;" class="cls-4" d="M838.17,349.22h0a32,32,0,0,1-32-32V222.1a32,32,0,0,1,32-32h0a32,32,0,0,1,32,32v95.1A32,32,0,0,1,838.17,349.22Z" transform="translate(36.5 1.28)"/></g></g><g id="_Grupp_122" data-name="&lt;Grupp&gt;"><g id="_Grupp_123" data-name="&lt;Grupp&gt;"><path id="_Bana_54" data-name="&lt;Bana&gt;" class="cls-4" d="M557.56,349.22h0a32,32,0,0,0,32-32V222.1a32,32,0,0,0-32-32h0a32,32,0,0,0-32,32v95.1A32,32,0,0,0,557.56,349.22Z" transform="translate(36.5 1.28)"/></g></g></g></g></g></g><g id="_Grupp_124" data-name="&lt;Grupp&gt;"><polygon id="_Bana_55" data-name="&lt;Bana&gt;" class="cls-9" points="1472 1322 0 1322 39 2 1472 0 1472 1322"/></g></svg>