<svg id="Layer_1" data-name="Layer 1" xmlns="http://www.w3.org/2000/svg" viewBox="0 0 1227.35 1238.96"><defs><style>.cls-1{fill:#bdbdbd;}.cls-2{fill:#fff;}.cls-3{fill:#263238;}.cls-4{fill:#4fc3f7;}.cls-5{fill:#fafafa;}.cls-6{fill:#212121;}.cls-7{fill:none;stroke:#000;stroke-linecap:round;stroke-linejoin:round;stroke-width:0;}.cls-8{fill:#37474f;}.cls-9{fill:#039be5;}</style></defs><title>spaceman</title><g id="_Grupp_" data-name="&lt;Grupp&gt;"><g id="_Grupp_2" data-name="&lt;Grupp&gt;"><g id="_Grupp_3" data-name="&lt;Grupp&gt;"><g id="_Grupp_4" data-name="&lt;Grupp&gt;"><ellipse id="_Bana_" data-name="&lt;Bana&gt;" class="cls-1" cx="698.86" cy="1173.89" rx="487.68" ry="65.07"/></g></g><g id="_Grupp_5" data-name="&lt;Grupp&gt;"><g id="_Grupp_6" data-name="&lt;Grupp&gt;"><g id="_Grupp_7" data-name="&lt;Grupp&gt;"><g id="_Grupp_8" data-name="&lt;Grupp&gt;"><g id="_Grupp_9" data-name="&lt;Grupp&gt;"><path id="_Bana_2" data-name="&lt;Bana&gt;" class="cls-2" d="M1134.37,885l-41.61,57.45a22.48,22.48,0,0,0-1.34,24.27h0a22.48,22.48,0,0,0,31.62,7.85l24.93-15.9Z" transform="translate(-96.31 -106.85)"/></g></g><g id="_Grupp_10" data-name="&lt;Grupp&gt;"><g id="_Grupp_11" data-name="&lt;Grupp&gt;"><path id="_Stansad_bana_" data-name="&lt;Stansad bana&gt;" class="cls-3" d="M1110.91,988.86a32.69,32.69,0,0,1-8-1A33.26,33.26,0,0,1,1084,936.1l41.61-57.45A10.79,10.79,0,0,1,1145,883l13.6,73.67a10.77,10.77,0,0,1-4.81,11l-24.93,15.91A33.46,33.46,0,0,1,1110.91,988.86Zm17.42-77.14-26.82,37a11.7,11.7,0,0,0-.7,12.61,11.66,11.66,0,0,0,16.42,4.08l18.8-12Z" transform="translate(-96.31 -106.85)"/></g></g></g><g id="_Grupp_12" data-name="&lt;Grupp&gt;"><g id="_Grupp_13" data-name="&lt;Grupp&gt;"><g id="_Grupp_14" data-name="&lt;Grupp&gt;"><path id="_Bana_3" data-name="&lt;Bana&gt;" class="cls-2" d="M1047,610.78s143.9,51.75,178.74,233.86L1143.32,899s-17.3-68.71-81-114.26Z" transform="translate(-96.31 -106.85)"/></g></g><g id="_Grupp_15" data-name="&lt;Grupp&gt;"><g id="_Grupp_16" data-name="&lt;Grupp&gt;"><path id="_Bana_4" data-name="&lt;Bana&gt;" class="cls-1" d="M1083,704.42s67.87,79.55,78.83,142.45l-24.63,27.59-72.79-96.52Z" transform="translate(-96.31 -106.85)"/></g></g><g id="_Grupp_17" data-name="&lt;Grupp&gt;"><g id="_Grupp_18" data-name="&lt;Grupp&gt;"><path id="_Stansad_bana_2" data-name="&lt;Stansad bana&gt;" class="cls-3" d="M1143.32,914.11a15.08,15.08,0,0,1-14.65-11.42c-.15-.6-17-64.09-75.15-105.66a15.13,15.13,0,0,1-6.27-11L1032,612.1a15.1,15.1,0,0,1,20.16-15.54c1.58.57,39.19,14.35,81.21,51.55,38.56,34.13,88.46,95.44,107.26,193.69a15.1,15.1,0,0,1-6.52,15.45l-82.44,54.37A15.1,15.1,0,0,1,1143.32,914.11Zm-66.56-137.47c42.9,32.82,64.74,74.78,74.51,99l57.64-38c-14.73-67.25-46.53-123.07-94.59-166a282.39,282.39,0,0,0-49.93-35.75Z" transform="translate(-96.31 -106.85)"/></g></g></g><g id="_Grupp_19" data-name="&lt;Grupp&gt;"><g id="_Grupp_20" data-name="&lt;Grupp&gt;"><g id="_Grupp_21" data-name="&lt;Grupp&gt;"><path id="_Bana_5" data-name="&lt;Bana&gt;" class="cls-2" d="M1134.08,874s12.28,75.47,17.1,108.54l131.67-49s-3.49-68.38-60.91-106.53Z" transform="translate(-96.31 -106.85)"/></g></g><g id="_Grupp_22" data-name="&lt;Grupp&gt;"><g id="_Grupp_23" data-name="&lt;Grupp&gt;"><polygon id="_Bana_6" data-name="&lt;Bana&gt;" class="cls-1" points="1069.46 750.14 1096.32 858.38 1054.87 875.64 1037.77 767.1 1069.46 750.14"/></g></g><g id="_Grupp_24" data-name="&lt;Grupp&gt;"><g id="_Grupp_25" data-name="&lt;Grupp&gt;"><path id="_Stansad_bana_3" data-name="&lt;Stansad bana&gt;" class="cls-3" d="M1151.18,993.28A10.8,10.8,0,0,1,1140.5,984c-4.75-32.6-17-107.6-17.07-108.35a10.78,10.78,0,0,1,5.56-11.25l87.85-47a10.81,10.81,0,0,1,11.07.53c61.24,40.69,65.57,112,65.72,115a10.79,10.79,0,0,1-7,10.67l-131.68,49A10.59,10.59,0,0,1,1151.18,993.28ZM1146,879.83c2.77,17.12,9.58,59.38,13.92,87.9l111.24-41.41c-2.75-17.16-13.07-59.18-50-86.73Z" transform="translate(-96.31 -106.85)"/></g></g></g><g id="_Grupp_26" data-name="&lt;Grupp&gt;"><g id="_Grupp_27" data-name="&lt;Grupp&gt;"><g id="_Grupp_28" data-name="&lt;Grupp&gt;"><path id="_Bana_7" data-name="&lt;Bana&gt;" class="cls-2" d="M1282.43,933.47l28.49,61.32a20.72,20.72,0,0,1-11,27.91h0a20.72,20.72,0,0,1-26-9.24L1239,949.63Z" transform="translate(-96.31 -106.85)"/></g></g><g id="_Grupp_29" data-name="&lt;Grupp&gt;"><g id="_Grupp_30" data-name="&lt;Grupp&gt;"><path id="_Stansad_bana_4" data-name="&lt;Stansad bana&gt;" class="cls-3" d="M1292.14,1035a31.5,31.5,0,0,1-27.64-16.39l-34.94-63.83a10.79,10.79,0,0,1,5.7-15.3l43.4-16.15a10.79,10.79,0,0,1,13.55,5.56l28.49,61.32a31.53,31.53,0,0,1-28.56,44.79Zm-37.66-79.64,29,52.89a9.92,9.92,0,0,0,12.44,4.42,9.93,9.93,0,0,0,5.26-13.37l-24.29-52.26Z" transform="translate(-96.31 -106.85)"/></g></g></g><g id="_Grupp_31" data-name="&lt;Grupp&gt;"><g id="_Grupp_32" data-name="&lt;Grupp&gt;"><g id="_Grupp_33" data-name="&lt;Grupp&gt;"><path id="_Bana_8" data-name="&lt;Bana&gt;" class="cls-2" d="M1245.41,947.25l19.13,86.74a20.71,20.71,0,0,1-17.84,25l-5.23.61a20.72,20.72,0,0,1-22.7-16.52l-16-80Z" transform="translate(-96.31 -106.85)"/></g></g><g id="_Grupp_34" data-name="&lt;Grupp&gt;"><g id="_Grupp_35" data-name="&lt;Grupp&gt;"><path id="_Stansad_bana_5" data-name="&lt;Stansad bana&gt;" class="cls-3" d="M1239.13,1070.56a31.73,31.73,0,0,1-30.94-25.33l-16-80A10.8,10.8,0,0,1,1199,953l42.63-15.86a10.78,10.78,0,0,1,14.3,7.79l19.13,86.73a31.5,31.5,0,0,1-27.14,38.08l-5.23.61A30.83,30.83,0,0,1,1239.13,1070.56Zm-24-100.54,14.19,71a10,10,0,0,0,10.87,7.91l5.23-.61a9.93,9.93,0,0,0,8.54-12l-16.46-74.62Z" transform="translate(-96.31 -106.85)"/></g></g></g><g id="_Grupp_36" data-name="&lt;Grupp&gt;"><g id="_Grupp_37" data-name="&lt;Grupp&gt;"><g id="_Grupp_38" data-name="&lt;Grupp&gt;"><path id="_Bana_9" data-name="&lt;Bana&gt;" class="cls-2" d="M1150.75,982.49l-2.64,72.89a20.7,20.7,0,0,0,22.69,21.36l10.42-1a20.7,20.7,0,0,0,18.71-20l2.86-92.64Z" transform="translate(-96.31 -106.85)"/></g></g><g id="_Grupp_39" data-name="&lt;Grupp&gt;"><g id="_Grupp_40" data-name="&lt;Grupp&gt;"><path id="_Stansad_bana_6" data-name="&lt;Stansad bana&gt;" class="cls-3" d="M1168.8,1087.63a31.5,31.5,0,0,1-31.48-32.64l2.65-72.9a10.78,10.78,0,0,1,7-9.72L1199,953a10.79,10.79,0,0,1,14.55,10.45l-2.85,92.64a31.57,31.57,0,0,1-28.45,30.38l-10.43,1C1170.83,1087.58,1169.81,1087.63,1168.8,1087.63Zm-7.52-97.54-2.39,65.68a9.93,9.93,0,0,0,10.87,10.23l10.42-1a9.93,9.93,0,0,0,9-9.56l2.36-76.6Z" transform="translate(-96.31 -106.85)"/></g></g></g><g id="_Grupp_41" data-name="&lt;Grupp&gt;"><g id="_Grupp_42" data-name="&lt;Grupp&gt;"><g id="_Grupp_43" data-name="&lt;Grupp&gt;"><path id="_Bana_10" data-name="&lt;Bana&gt;" class="cls-3" d="M1111,844.57a10.81,10.81,0,0,1-10.3-14c23.86-76.08,77.65-103.77,79.93-104.91a10.79,10.79,0,0,1,9.7,19.28c-.66.34-48.08,25.29-69,92.09A10.81,10.81,0,0,1,1111,844.57Z" transform="translate(-96.31 -106.85)"/></g></g></g></g><g id="_Grupp_44" data-name="&lt;Grupp&gt;"><g id="_Grupp_45" data-name="&lt;Grupp&gt;"><g id="_Grupp_46" data-name="&lt;Grupp&gt;"><path id="_Bana_11" data-name="&lt;Bana&gt;" class="cls-2" d="M191.54,678.58l-48.86-8.05a22.88,22.88,0,0,1-19.13-23.62l.07-1.42a22.86,22.86,0,0,1,27.2-21.39l48.79,9.47a22.88,22.88,0,0,1,18.1,18.13h0A22.87,22.87,0,0,1,191.54,678.58Z" transform="translate(-96.31 -106.85)"/></g></g><g id="_Grupp_47" data-name="&lt;Grupp&gt;"><g id="_Grupp_48" data-name="&lt;Grupp&gt;"><path id="_Stansad_bana_7" data-name="&lt;Stansad bana&gt;" class="cls-3" d="M195.25,689.67a33.62,33.62,0,0,1-5.47-.44h0l-48.86-8.05a33.67,33.67,0,0,1-28.15-34.77l.07-1.42a33.66,33.66,0,0,1,40-31.49L201.67,623a33.65,33.65,0,0,1-6.42,66.69Zm-2-21.74a12.07,12.07,0,0,0,4.26-23.76l-48.79-9.48A12.07,12.07,0,0,0,134.4,646l-.06,1.43a12.07,12.07,0,0,0,10.09,12.47Z" transform="translate(-96.31 -106.85)"/></g></g></g><g id="_Grupp_49" data-name="&lt;Grupp&gt;"><g id="_Grupp_50" data-name="&lt;Grupp&gt;"><g id="_Grupp_51" data-name="&lt;Grupp&gt;"><path id="_Bana_12" data-name="&lt;Bana&gt;" class="cls-2" d="M192,620.59l-68.55-20.48a22.85,22.85,0,0,1-15.87-26.4l1.7-8.49A22.86,22.86,0,0,1,137.1,547.5l69.88,17a22.87,22.87,0,0,1,16.75,27.84l-3,11.95A22.87,22.87,0,0,1,192,620.59Z" transform="translate(-96.31 -106.85)"/></g></g><g id="_Grupp_52" data-name="&lt;Grupp&gt;"><g id="_Grupp_53" data-name="&lt;Grupp&gt;"><path id="_Stansad_bana_8" data-name="&lt;Stansad bana&gt;" class="cls-3" d="M198.6,632.36a33.71,33.71,0,0,1-9.7-1.43h0l-68.55-20.47A33.52,33.52,0,0,1,97,571.59l1.71-8.49a33.65,33.65,0,0,1,41-26.09l69.88,17a33.65,33.65,0,0,1,24.66,41l-3,12a33.69,33.69,0,0,1-32.56,25.41Zm-3.52-22.11a12.08,12.08,0,0,0,15.16-8.6l3-11.95a12.07,12.07,0,0,0-8.85-14.7l-69.88-17a12.07,12.07,0,0,0-14.69,9.36l-1.7,8.49a12,12,0,0,0,8.38,13.94Z" transform="translate(-96.31 -106.85)"/></g></g></g><g id="_Grupp_54" data-name="&lt;Grupp&gt;"><g id="_Grupp_55" data-name="&lt;Grupp&gt;"><g id="_Grupp_56" data-name="&lt;Grupp&gt;"><path id="_Bana_13" data-name="&lt;Bana&gt;" class="cls-2" d="M231.14,506.65,176,481.11a22.87,22.87,0,0,0-29.87,10.16l-2.92,5.59a22.86,22.86,0,0,0,11,31.51L210,553a22.87,22.87,0,0,0,29.85-11l2.26-4.71A22.86,22.86,0,0,0,231.14,506.65Z" transform="translate(-96.31 -106.85)"/></g></g><g id="_Grupp_57" data-name="&lt;Grupp&gt;"><g id="_Grupp_58" data-name="&lt;Grupp&gt;"><path id="_Stansad_bana_9" data-name="&lt;Stansad bana&gt;" class="cls-3" d="M219.37,565.81a33.88,33.88,0,0,1-13.69-2.91l-55.83-24.66a33.66,33.66,0,0,1-16.23-46.38l2.93-5.59a33.62,33.62,0,0,1,44-14.95l55.17,25.54h0a33.66,33.66,0,0,1,16.2,45.1l-2.25,4.7A33.51,33.51,0,0,1,219.37,565.81Zm-53-76a12.06,12.06,0,0,0-10.7,6.48l-2.92,5.59a12.07,12.07,0,0,0,5.82,16.64l55.83,24.65a12,12,0,0,0,15.76-5.82l2.26-4.71a12.06,12.06,0,0,0-5.81-16.17h0l-55.17-25.54A12,12,0,0,0,166.37,489.79Z" transform="translate(-96.31 -106.85)"/></g></g></g><g id="_Grupp_59" data-name="&lt;Grupp&gt;"><g id="_Grupp_60" data-name="&lt;Grupp&gt;"><g id="_Grupp_61" data-name="&lt;Grupp&gt;"><path id="_Bana_14" data-name="&lt;Bana&gt;" class="cls-2" d="M543.39,640.59,365.44,588.15l-39.13,85,223,113.25S586.26,680.73,543.39,640.59Z" transform="translate(-96.31 -106.85)"/></g></g><g id="_Grupp_62" data-name="&lt;Grupp&gt;"><g id="_Grupp_63" data-name="&lt;Grupp&gt;"><polygon id="_Bana_15" data-name="&lt;Bana&gt;" class="cls-1" points="256.4 534.73 425.69 586.68 425.69 664.78 239.6 565 256.4 534.73"/></g></g><g id="_Grupp_64" data-name="&lt;Grupp&gt;"><g id="_Grupp_65" data-name="&lt;Grupp&gt;"><path id="_Stansad_bana_10" data-name="&lt;Stansad bana&gt;" class="cls-3" d="M549.3,801.53a15.11,15.11,0,0,1-6.84-1.64l-223-113.25a15.11,15.11,0,0,1-6.89-19.79l39.13-85a15.1,15.1,0,0,1,18-8.17l178,52.44a15.06,15.06,0,0,1,6.06,3.46c21.5,20.13,29.47,54.06,23.7,100.85a325.41,325.41,0,0,1-13.85,61,15.11,15.11,0,0,1-14.27,10.13ZM346.12,666.28l194,98.5c8.61-32.53,16.85-86.61-4.71-110.8L373.7,606.34Z" transform="translate(-96.31 -106.85)"/></g></g></g><g id="_Grupp_66" data-name="&lt;Grupp&gt;"><g id="_Grupp_67" data-name="&lt;Grupp&gt;"><g id="_Grupp_68" data-name="&lt;Grupp&gt;"><path id="_Bana_16" data-name="&lt;Bana&gt;" class="cls-4" d="M594.87,811.28l-55.64-10.72S508,699.42,558.54,605.6l81.92,26.62Z" transform="translate(-96.31 -106.85)"/></g></g><g id="_Grupp_69" data-name="&lt;Grupp&gt;"><g id="_Grupp_70" data-name="&lt;Grupp&gt;"><path id="_Stansad_bana_11" data-name="&lt;Stansad bana&gt;" class="cls-3" d="M604.41,826.3l-75.26-14.49-2.29-7.43c-1.34-4.34-32.22-107.44,20.28-204.92l5.13-9.52L656,623.66ZM549.7,789.39l35.63,6.86,39.59-155.46-59.84-19.45C531.31,692.44,544.29,766.28,549.7,789.39Z" transform="translate(-96.31 -106.85)"/></g></g></g><g id="_Grupp_71" data-name="&lt;Grupp&gt;"><g id="_Grupp_72" data-name="&lt;Grupp&gt;"><g id="_Grupp_73" data-name="&lt;Grupp&gt;"><path id="_Bana_17" data-name="&lt;Bana&gt;" class="cls-4" d="M1008.84,811.28l55.64-10.72s31.23-101.14-19.31-195l-81.92,26.62Z" transform="translate(-96.31 -106.85)"/></g></g><g id="_Grupp_74" data-name="&lt;Grupp&gt;"><g id="_Grupp_75" data-name="&lt;Grupp&gt;"><path id="_Stansad_bana_12" data-name="&lt;Stansad bana&gt;" class="cls-3" d="M999.31,826.3,947.7,623.66l103.75-33.72,5.13,9.52c52.5,97.48,21.62,200.58,20.28,204.92l-2.29,7.43ZM978.8,640.79l39.58,155.46,35.61-6.86c5.37-23.14,18.28-97.17-15.36-168Z" transform="translate(-96.31 -106.85)"/></g></g></g><g id="_Grupp_76" data-name="&lt;Grupp&gt;"><g id="_Grupp_77" data-name="&lt;Grupp&gt;"><g id="_Grupp_78" data-name="&lt;Grupp&gt;"><g id="_Grupp_79" data-name="&lt;Grupp&gt;"><polygon id="_Bana_18" data-name="&lt;Bana&gt;" class="cls-2" points="515.47 838.09 462.35 1092.18 606.57 1133.2 634.95 965.66 515.47 838.09"/></g></g><g id="_Grupp_80" data-name="&lt;Grupp&gt;"><g id="_Grupp_81" data-name="&lt;Grupp&gt;"><path id="_Bana_19" data-name="&lt;Bana&gt;" class="cls-1" d="M616.33,993.28s16,60.66,56.69,94.35l-28.35,124.65,64.73,6.9,21.86-146.67Z" transform="translate(-96.31 -106.85)"/></g></g><g id="_Grupp_82" data-name="&lt;Grupp&gt;"><g id="_Grupp_83" data-name="&lt;Grupp&gt;"><path id="_Stansad_bana_13" data-name="&lt;Stansad bana&gt;" class="cls-3" d="M702.88,1250.84a10.68,10.68,0,0,1-3-.41l-144.21-41a10.78,10.78,0,0,1-7.61-12.59l53.12-254.09a10.79,10.79,0,0,1,18.44-5.17l119.48,127.57a10.82,10.82,0,0,1,2.76,9.18l-28.38,167.54a10.77,10.77,0,0,1-10.64,9Zm-131.6-59.44,123,35L719.72,1076,618.1,967.47Z" transform="translate(-96.31 -106.85)"/></g></g></g><g id="_Grupp_84" data-name="&lt;Grupp&gt;"><g id="_Grupp_85" data-name="&lt;Grupp&gt;"><g id="_Grupp_86" data-name="&lt;Grupp&gt;"><path id="_Bana_20" data-name="&lt;Bana&gt;" class="cls-5" d="M472.57,1265.69s8-94.86,125-94.86,126.74,95,126.74,95S611.69,1305.37,472.57,1265.69Z" transform="translate(-96.31 -106.85)"/></g></g><g id="_Grupp_87" data-name="&lt;Grupp&gt;"><g id="_Grupp_88" data-name="&lt;Grupp&gt;"><path id="_Bana_21" data-name="&lt;Bana&gt;" class="cls-1" d="M587.77,1188.36s56.07,28.26,57.19,92.86L722.35,1258l-47.54-64S607.16,1169.05,587.77,1188.36Z" transform="translate(-96.31 -106.85)"/></g></g><g id="_Grupp_89" data-name="&lt;Grupp&gt;"><g id="_Grupp_90" data-name="&lt;Grupp&gt;"><path id="_Stansad_bana_14" data-name="&lt;Stansad bana&gt;" class="cls-3" d="M600.25,1300.73a482.69,482.69,0,0,1-132.42-18.43,17.27,17.27,0,0,1-12.47-18.06c.1-1.16,2.62-28.67,21.7-55.89,17.52-25,52.64-54.79,120.46-54.79s103.3,29.75,121.24,54.7c19.53,27.17,22.56,54.65,22.68,55.8A17.27,17.27,0,0,1,730,1282.13C726.81,1283.25,675.71,1300.73,600.25,1300.73ZM493,1253.24c96.59,23.69,178.39,8.64,210.76.51-7.66-22.84-31.91-65.65-106.21-65.65-42.53,0-73.54,13.48-92.18,40.08A93.6,93.6,0,0,0,493,1253.24Z" transform="translate(-96.31 -106.85)"/></g></g></g><g id="_Grupp_91" data-name="&lt;Grupp&gt;"><g id="_Grupp_92" data-name="&lt;Grupp&gt;"><g id="_Grupp_93" data-name="&lt;Grupp&gt;"><polygon id="_Bana_22" data-name="&lt;Bana&gt;" class="cls-2" points="884.83 838.09 937.95 1092.18 793.74 1133.2 765.35 965.66 884.83 838.09"/></g></g><g id="_Grupp_94" data-name="&lt;Grupp&gt;"><g id="_Grupp_95" data-name="&lt;Grupp&gt;"><path id="_Bana_23" data-name="&lt;Bana&gt;" class="cls-1" d="M976.59,993.28s-16,60.66-56.69,94.35l28.35,124.65-64.73,6.9-21.86-146.67Z" transform="translate(-96.31 -106.85)"/></g></g><g id="_Grupp_96" data-name="&lt;Grupp&gt;"><g id="_Grupp_97" data-name="&lt;Grupp&gt;"><path id="_Stansad_bana_15" data-name="&lt;Stansad bana&gt;" class="cls-3" d="M890.05,1250.84a10.77,10.77,0,0,1-10.64-9L851,1074.31a10.79,10.79,0,0,1,2.77-9.18L973.26,937.56a10.79,10.79,0,0,1,18.44,5.17l53.13,254.09a10.79,10.79,0,0,1-7.61,12.59l-144.22,41A10.61,10.61,0,0,1,890.05,1250.84ZM873.2,1076l25.48,150.4,123-35L974.82,967.47Z" transform="translate(-96.31 -106.85)"/></g></g></g><g id="_Grupp_98" data-name="&lt;Grupp&gt;"><g id="_Grupp_99" data-name="&lt;Grupp&gt;"><g id="_Grupp_100" data-name="&lt;Grupp&gt;"><path id="_Bana_24" data-name="&lt;Bana&gt;" class="cls-5" d="M1120.35,1265.69s-8-94.86-124.95-94.86-126.74,95-126.74,95S981.23,1305.37,1120.35,1265.69Z" transform="translate(-96.31 -106.85)"/></g></g><g id="_Grupp_101" data-name="&lt;Grupp&gt;"><g id="_Grupp_102" data-name="&lt;Grupp&gt;"><path id="_Bana_25" data-name="&lt;Bana&gt;" class="cls-1" d="M1005.15,1188.36s-56.06,28.26-57.19,92.86L870.57,1258l47.54-64S985.76,1169.05,1005.15,1188.36Z" transform="translate(-96.31 -106.85)"/></g></g><g id="_Grupp_103" data-name="&lt;Grupp&gt;"><g id="_Grupp_104" data-name="&lt;Grupp&gt;"><path id="_Stansad_bana_16" data-name="&lt;Stansad bana&gt;" class="cls-3" d="M992.67,1300.73c-75.47,0-126.55-17.48-129.73-18.6a17.27,17.27,0,0,1-11.46-18.07c.12-1.15,3.16-28.63,22.69-55.8,17.93-25,53.52-54.7,121.23-54.7s102.95,29.8,120.47,54.79c19.07,27.22,21.59,54.73,21.69,55.89a17.27,17.27,0,0,1-12.47,18.06A482.59,482.59,0,0,1,992.67,1300.73Zm-103.47-47c32.36,8.12,114.2,23.18,210.81-.52-7.27-22.79-30.72-65.13-104.61-65.13C921.15,1188.1,896.88,1230.86,889.2,1253.75Z" transform="translate(-96.31 -106.85)"/></g></g></g><g id="_Grupp_105" data-name="&lt;Grupp&gt;"><g id="_Grupp_106" data-name="&lt;Grupp&gt;"><g id="_Grupp_107" data-name="&lt;Grupp&gt;"><path id="_Bana_26" data-name="&lt;Bana&gt;" class="cls-5" d="M992,652.51c-16.18-39-191.2-6.07-191.2-6.07s-173.21-32.92-189.38,6.07c0,0-53.47,63.43-16.39,236.42s164.76,203,207.93,203,168.52-30,205.6-203S992,652.51,992,652.51Z" transform="translate(-96.31 -106.85)"/></g></g><g id="_Grupp_108" data-name="&lt;Grupp&gt;"><g id="_Grupp_109" data-name="&lt;Grupp&gt;"><path id="_Bana_27" data-name="&lt;Bana&gt;" class="cls-1" d="M660.08,662.76s-34,201.34,43.65,373.84l15,12.37L673,816.07l5.16-158.89S663.66,634,660.08,662.76Z" transform="translate(-96.31 -106.85)"/></g></g><g id="_Grupp_110" data-name="&lt;Grupp&gt;"><g id="_Grupp_111" data-name="&lt;Grupp&gt;"><path id="_Bana_28" data-name="&lt;Bana&gt;" class="cls-1" d="M992,652.51c-16.18-39-191.2-6.07-191.2-6.07S793,645,780.49,643c-71.27,5.89-135.51,10.86-145.43,10.46,0,0,112.89,47.65,238.14,45.87,0,0,56.82,148.94-19.41,365.81-3.55,10.09-59.92,26.79-50.85,26.79,43.17,0,168.52-30,205.6-203S992,652.51,992,652.51Z" transform="translate(-96.31 -106.85)"/></g></g><g id="_Grupp_112" data-name="&lt;Grupp&gt;"><g id="_Grupp_113" data-name="&lt;Grupp&gt;"><path id="_Stansad_bana_17" data-name="&lt;Stansad bana&gt;" class="cls-3" d="M802.94,1109.19c-28.48,0-73.93-10.43-116.1-39.71-55.19-38.31-91.77-97.84-108.72-176.93-35.15-164,8.84-235.81,18.39-249,11.6-23,47.9-31,116.92-25.93,39.21,2.9,76.37,9.27,87.37,11.25,11.06-2,48.62-8.35,88.25-11.25,69.6-5.11,106.19,2.89,117.81,25.91,9.59,13.19,53.71,85,18.56,249-17,79.1-53.1,138.61-107.45,176.87C876.31,1098.74,831.23,1109.19,802.94,1109.19ZM624.68,663.55c-2,2.58-46.59,64-12.79,221.76,32.1,149.77,139,189.34,191.05,189.34,21.95,0,60-8.77,95.14-33.47,47-33.1,78.5-85.54,93.57-155.87C1026,725.09,979.28,664.22,978.8,663.66a17.39,17.39,0,0,1-2.69-4.34c-.85-1-13.23-12.94-88.49-6.94-42.86,3.41-83.25,11-83.65,11a17.06,17.06,0,0,1-6.41,0c-.41-.07-40.67-7.66-83.13-11-74.31-5.94-86.35,6-87.16,6.95A14.61,14.61,0,0,1,624.68,663.55Z" transform="translate(-96.31 -106.85)"/></g></g></g><g id="_Grupp_114" data-name="&lt;Grupp&gt;"><g id="_Grupp_115" data-name="&lt;Grupp&gt;"><g id="_Grupp_116" data-name="&lt;Grupp&gt;"><path id="_Bana_29" data-name="&lt;Bana&gt;" class="cls-2" d="M694.33,633.79s-62.81,198.51,36.93,438.72" transform="translate(-96.31 -106.85)"/></g></g><g id="_Grupp_117" data-name="&lt;Grupp&gt;"><g id="_Grupp_118" data-name="&lt;Grupp&gt;"><path id="_Bana_30" data-name="&lt;Bana&gt;" class="cls-3" d="M719.3,1077.48c-52.43-126.27-59.85-241-56.85-314.93C665.72,682.09,681.32,632,682,629.88l24.7,7.81-12.35-3.9,12.35,3.89c-.15.49-15.36,49.62-18.38,126.9-2.79,71.15,4.47,181.47,54.92,303Z" transform="translate(-96.31 -106.85)"/></g></g></g><g id="_Grupp_119" data-name="&lt;Grupp&gt;"><g id="_Grupp_120" data-name="&lt;Grupp&gt;"><g id="_Grupp_121" data-name="&lt;Grupp&gt;"><path id="_Bana_31" data-name="&lt;Bana&gt;" class="cls-3" d="M883.74,1077.48l-23.92-9.94C956.63,834.4,897,639.64,896.36,637.69l24.7-7.81c.66,2.09,16.26,52.21,19.53,132.67C943.59,836.52,936.17,951.21,883.74,1077.48Z" transform="translate(-96.31 -106.85)"/></g></g></g><g id="_Grupp_122" data-name="&lt;Grupp&gt;"><g id="_Grupp_123" data-name="&lt;Grupp&gt;"><g id="_Grupp_124" data-name="&lt;Grupp&gt;"><path id="_Bana_32" data-name="&lt;Bana&gt;" class="cls-2" d="M924.86,861s-62.2,27-123.34,27-123.34-27-123.34-27" transform="translate(-96.31 -106.85)"/></g></g><g id="_Grupp_125" data-name="&lt;Grupp&gt;"><g id="_Grupp_126" data-name="&lt;Grupp&gt;"><path id="_Bana_33" data-name="&lt;Bana&gt;" class="cls-3" d="M801.52,901c-63.1,0-125.86-27-128.5-28.1l10.32-23.75c.59.25,60.57,25.94,118.18,25.94s117.59-25.69,118.19-26L930,872.9C927.38,874.05,864.63,901,801.52,901Z" transform="translate(-96.31 -106.85)"/></g></g></g><g id="_Grupp_127" data-name="&lt;Grupp&gt;"><g id="_Grupp_128" data-name="&lt;Grupp&gt;"><g id="_Grupp_129" data-name="&lt;Grupp&gt;"><rect id="_Rektangel_" data-name="&lt;Rektangel&gt;" class="cls-4" x="641.66" y="664.4" width="116.12" height="37.56"/></g><g id="_Grupp_130" data-name="&lt;Grupp&gt;"><path id="_Stansad_bana_18" data-name="&lt;Stansad bana&gt;" class="cls-6" d="M861.91,816.62H730.16V763.44H861.91ZM745.78,801h100.5V779.06H745.78Z" transform="translate(-96.31 -106.85)"/></g></g></g><g id="_Grupp_131" data-name="&lt;Grupp&gt;"><g id="_Grupp_132" data-name="&lt;Grupp&gt;"><g id="_Grupp_133" data-name="&lt;Grupp&gt;"><path id="_Bana_34" data-name="&lt;Bana&gt;" class="cls-3" d="M722.43,1135.43h-.3c-76.74-2.15-141-52.31-143.71-54.44A10.8,10.8,0,0,1,591.81,1064c1,.76,61.71,47.86,130.92,49.81a10.79,10.79,0,0,1-.3,21.58Z" transform="translate(-96.31 -106.85)"/></g></g></g><g id="_Grupp_134" data-name="&lt;Grupp&gt;"><g id="_Grupp_135" data-name="&lt;Grupp&gt;"><g id="_Grupp_136" data-name="&lt;Grupp&gt;"><path id="_Bana_35" data-name="&lt;Bana&gt;" class="cls-3" d="M870.49,1135.43a10.79,10.79,0,0,1-.3-21.58c69.65-2,130.32-49.33,130.92-49.81A10.8,10.8,0,1,1,1014.5,1081c-2.69,2.13-67,52.29-143.7,54.44Z" transform="translate(-96.31 -106.85)"/></g></g></g></g><g id="_Grupp_137" data-name="&lt;Grupp&gt;"><g id="_Grupp_138" data-name="&lt;Grupp&gt;"><g id="_Grupp_139" data-name="&lt;Grupp&gt;"><path id="_Bana_36" data-name="&lt;Bana&gt;" class="cls-7" d="M543.91,870.93h0" transform="translate(-96.31 -106.85)"/></g></g></g><g id="_Grupp_140" data-name="&lt;Grupp&gt;"><g id="_Grupp_141" data-name="&lt;Grupp&gt;"><g id="_Grupp_142" data-name="&lt;Grupp&gt;"><g id="_Grupp_143" data-name="&lt;Grupp&gt;"><path id="_Bana_37" data-name="&lt;Bana&gt;" d="M685,283.3v0Z" transform="translate(-96.31 -106.85)"/></g></g></g><g id="_Grupp_144" data-name="&lt;Grupp&gt;"><g id="_Grupp_145" data-name="&lt;Grupp&gt;"><g id="_Grupp_146" data-name="&lt;Grupp&gt;"><g id="_Grupp_147" data-name="&lt;Grupp&gt;"><path id="_Stansad_bana_19" data-name="&lt;Stansad bana&gt;" class="cls-3" d="M1209.76,520.39h-63.33V294.11h63.33A50.25,50.25,0,0,1,1260,344.3V470.2A50.24,50.24,0,0,1,1209.76,520.39Zm-33.11-30.22h33.11a20,20,0,0,0,20-20V344.3a20,20,0,0,0-20-20h-33.11Z" transform="translate(-96.31 -106.85)"/></g></g></g><g id="_Grupp_148" data-name="&lt;Grupp&gt;"><g id="_Grupp_149" data-name="&lt;Grupp&gt;"><g id="_Grupp_150" data-name="&lt;Grupp&gt;"><path id="_Stansad_bana_20" data-name="&lt;Stansad bana&gt;" class="cls-3" d="M445.64,520.39H382.3a50.24,50.24,0,0,1-50.18-50.19V344.3a50.24,50.24,0,0,1,50.18-50.19h63.34ZM382.3,324.33a20,20,0,0,0-20,20V470.2a20,20,0,0,0,20,20h33.12V324.33Z" transform="translate(-96.31 -106.85)"/></g></g></g><g id="_Grupp_151" data-name="&lt;Grupp&gt;"><g id="_Grupp_152" data-name="&lt;Grupp&gt;"><g id="_Grupp_153" data-name="&lt;Grupp&gt;"><path id="_Bana_38" data-name="&lt;Bana&gt;" class="cls-5" d="M1124.28,257.35c-77.68-69.34-221.5-92.16-289.92-99.29a367.87,367.87,0,0,0-76.16,0C689.72,165.18,545.73,188,468,257.35c0,0-49.39,38.43-49.39,84.4v131c0,46,50,84.4,50,84.4,66.73,59.57,165.51,82.21,252.91,94.76,99,14.22,202.7-1,296.35-35.06,38.52-14,76.48-32.53,106.93-59.7,0,0,48.64-38.42,48.64-84.4v-131C1173.43,295.78,1124.28,257.35,1124.28,257.35Z" transform="translate(-96.31 -106.85)"/></g></g><g id="_Grupp_154" data-name="&lt;Grupp&gt;"><g id="_Grupp_155" data-name="&lt;Grupp&gt;"><path id="_Bana_39" data-name="&lt;Bana&gt;" class="cls-1" d="M1176,407.23V341.75c0-46-50.22-84.4-50.22-84.4-77.68-69.34-222-92.16-290.45-99.29a371.51,371.51,0,0,0-58.53-1.42,165,165,0,0,0-16.25,18.59s219.05-13,286.54,177.64c46.08,130.21-86.61,243.67-187.57,301a672.23,672.23,0,0,0,158.79-37.07c38.51-14,77.54-32.53,108-59.7,0,0,49.7-38.42,49.7-84.4Z" transform="translate(-96.31 -106.85)"/></g></g><g id="_Grupp_156" data-name="&lt;Grupp&gt;"><g id="_Grupp_157" data-name="&lt;Grupp&gt;"><path id="_Stansad_bana_21" data-name="&lt;Stansad bana&gt;" class="cls-3" d="M797.64,674.47A553.41,553.41,0,0,1,719.05,669c-83.5-12-188.55-34-261.13-98.24a102.61,102.61,0,0,1-8.83-7.64,192.92,192.92,0,0,1-18.86-20c-19.15-23.53-28.86-47.2-28.86-70.34v-131c0-51.67,49.59-92.86,55.55-97.62,79.93-71,221.9-95.17,299.49-103.25a385.7,385.7,0,0,1,79.74,0c77.51,8.08,219.34,32.25,299.26,103.26,5.86,4.7,55.28,45.92,55.28,97.61v131c0,51.74-49.1,93-54.75,97.59-28.1,25-64.8,45.51-112.18,62.74C948.28,660.48,871.4,674.47,797.64,674.47ZM474.82,539.84h.37l4.91,4.39c65.71,58.65,164.84,79.2,243.86,90.54,91,13.07,190.55,1.24,288-34.19,43.37-15.77,76.51-34.2,101.33-56.36l.79-.66c.4-.32,42.08-33.95,42.08-70.85v-131c0-36.53-42.09-70.46-42.51-70.79l-.87-.72c-75.31-67.23-221-88.84-280.21-95a350.73,350.73,0,0,0-72.58,0c-59.24,6.17-205.13,27.77-280.46,95l-.89.74c-.4.32-42.73,33.94-42.73,70.77v131C435.91,500,461,527.67,474.82,539.84Z" transform="translate(-96.31 -106.85)"/></g></g></g><g id="_Grupp_158" data-name="&lt;Grupp&gt;"><g id="_Grupp_159" data-name="&lt;Grupp&gt;"><path id="_Bana_40" data-name="&lt;Bana&gt;" class="cls-1" d="M1067.7,315.79c-31.91-19.94-71.43-34.24-110.39-44.47a640.68,640.68,0,0,0-325.09,0c-39,10.22-78.46,24.52-110.37,44.46A31.36,31.36,0,0,0,507,342.34V506.7a31.14,31.14,0,0,0,14.6,26.4c74.22,46.47,169.3,61.63,255.31,68.48,30.73,2.45,61.88-2,92.28-6.35,46.6-6.7,93.19-16.57,137.44-32.86,21.36-7.87,42.27-17.31,61.58-29.43a31,31,0,0,0,14.35-26.24V342.34A31.33,31.33,0,0,0,1067.7,315.79Z" transform="translate(-96.31 -106.85)"/></g></g><g id="_Grupp_160" data-name="&lt;Grupp&gt;"><g id="_Grupp_161" data-name="&lt;Grupp&gt;"><path id="_Bana_41" data-name="&lt;Bana&gt;" class="cls-3" d="M1067.7,298.52c-31.91-19.94-71.43-34.24-110.39-44.47a640.68,640.68,0,0,0-325.09,0c-39,10.22-78.46,24.52-110.37,44.46A31.36,31.36,0,0,0,507,325.07V489.43a31.15,31.15,0,0,0,14.6,26.41c74.22,46.46,169.3,61.62,255.31,68.48,30.73,2.45,61.88-2,92.28-6.36,46.6-6.69,93.19-16.56,137.44-32.86,21.36-7.87,42.27-17.31,61.58-29.43a31,31,0,0,0,14.35-26.24V325.07A31.33,31.33,0,0,0,1067.7,298.52Z" transform="translate(-96.31 -106.85)"/></g></g><g id="_Grupp_162" data-name="&lt;Grupp&gt;"><g id="_Grupp_163" data-name="&lt;Grupp&gt;"><path id="_Bana_42" data-name="&lt;Bana&gt;" class="cls-8" d="M1060.68,311.34c-27.08-16.92-63.25-31.28-106.65-42.67a626.19,626.19,0,0,0-317.56,0c-43.39,11.4-79.36,25.75-106.44,42.66a16.48,16.48,0,0,0-8,13.75v33.62C622,423.07,788,482,1069,469V325.07C1069,319.5,1065.53,314.37,1060.68,311.34Z" transform="translate(-96.31 -106.85)"/></g></g><g id="_Grupp_164" data-name="&lt;Grupp&gt;"><g id="_Grupp_165" data-name="&lt;Grupp&gt;"><g id="_Grupp_166" data-name="&lt;Grupp&gt;"><path id="_Bana_43" data-name="&lt;Bana&gt;" class="cls-4" d="M794.77,119.8c-169.85,0-167.87,48.13-167.87,48.13s27.61,20.88,53.65,80.48c9.77,22.36,28.27,36.78,47.58,46.08,40.83,19.64,92.46,19.64,133.28,0,19.31-9.3,37.82-23.72,47.58-46.08,26-59.6,53.65-80.48,53.65-80.48S964.62,119.8,794.77,119.8Z" transform="translate(-96.31 -106.85)"/></g></g><g id="_Grupp_167" data-name="&lt;Grupp&gt;"><g id="_Grupp_168" data-name="&lt;Grupp&gt;"><path id="_Bana_44" data-name="&lt;Bana&gt;" class="cls-9" d="M909.42,248.41c26-59.6,53.65-80.48,53.65-80.48s2-48.13-167.87-48.13c-68.11,0-108.57,7.74-132.63,17a106.92,106.92,0,0,0-18.44,25.74S812,128.08,871.78,180.14s-77.89,130.66-155.39,92c-24.9-12.43-20.83-4-3.87,13.14a124.11,124.11,0,0,0,16,9.23c40.82,19.64,92.45,19.64,133.28,0C881.15,285.19,899.65,270.77,909.42,248.41Z" transform="translate(-96.31 -106.85)"/></g></g><g id="_Grupp_169" data-name="&lt;Grupp&gt;"><g id="_Grupp_170" data-name="&lt;Grupp&gt;"><path id="_Stansad_bana_22" data-name="&lt;Stansad bana&gt;" class="cls-3" d="M794.77,322.24a167.33,167.33,0,0,1-72.25-16.08c-25.94-12.49-44.06-30.17-53.84-52.56-24-55.06-49.41-75.2-49.66-75.39l-4.74-3.69-.32-6.06c-.11-2.77.35-12.69,11.06-23.85,24-25.05,81.16-37.76,169.75-37.76s145.71,12.71,169.75,37.76c10.72,11.16,11.17,21.08,11.06,23.85l-.25,6.11-4.88,3.69c-.18.14-25.54,20.28-49.59,75.34C911.08,276,893,293.67,867,306.16A167.3,167.3,0,0,1,794.77,322.24ZM642.2,164.38c10.67,10.71,31,34.91,50.22,78.85,7.23,16.55,21.13,29.87,41.33,39.59,37.07,17.84,85,17.84,122,0,20.2-9.72,34.1-23,41.33-39.59,19.17-43.87,39.48-68.06,50.17-78.79-7.6-9.42-37.73-31.69-152.52-31.69-110.54,0-142.47,20.84-151.06,29.8C643.5,162.76,642.89,163.53,642.2,164.38Z" transform="translate(-96.31 -106.85)"/></g></g></g></g><g id="_Grupp_171" data-name="&lt;Grupp&gt;"><g id="_Grupp_172" data-name="&lt;Grupp&gt;"><g id="_Grupp_173" data-name="&lt;Grupp&gt;"><rect id="_Rektangel_2" data-name="&lt;Rektangel&gt;" class="cls-4" x="803.51" y="246.02" width="64.04" height="159.14" rx="32.02" ry="32.02"/></g></g></g><g id="_Grupp_174" data-name="&lt;Grupp&gt;"><g id="_Grupp_175" data-name="&lt;Grupp&gt;"><g id="_Grupp_176" data-name="&lt;Grupp&gt;"><path id="_Bana_45" data-name="&lt;Bana&gt;" class="cls-4" d="M651.22,512h0a32,32,0,0,0,32-32v-95.1a32,32,0,0,0-32-32h0a32,32,0,0,0-32,32V480A32,32,0,0,0,651.22,512Z" transform="translate(-96.31 -106.85)"/></g></g></g></g><g id="_Grupp_177" data-name="&lt;Grupp&gt;"><g id="_Grupp_178" data-name="&lt;Grupp&gt;"><g id="_Grupp_179" data-name="&lt;Grupp&gt;"><path id="_Bana_46" data-name="&lt;Bana&gt;" class="cls-2" d="M365,591,301.8,460.54a23.9,23.9,0,0,0-32.91-9.42h0a23.9,23.9,0,0,0-11.09,27.39l15.41,53.33Z" transform="translate(-96.31 -106.85)"/></g></g><g id="_Grupp_180" data-name="&lt;Grupp&gt;"><g id="_Grupp_181" data-name="&lt;Grupp&gt;"><path id="_Stansad_bana_23" data-name="&lt;Stansad bana&gt;" class="cls-3" d="M365,601.83a10.83,10.83,0,0,1-5.85-1.72l-91.8-59.2a10.78,10.78,0,0,1-4.51-6.08L247.43,481.5a34.69,34.69,0,0,1,63.87-26.08,3.17,3.17,0,0,1,.21.41l63.21,130.5a10.79,10.79,0,0,1-9.71,15.5ZM282.46,525l56.07,36.15L292.2,465.48a13.11,13.11,0,0,0-24,10Z" transform="translate(-96.31 -106.85)"/></g></g></g><g id="_Grupp_182" data-name="&lt;Grupp&gt;"><g id="_Grupp_183" data-name="&lt;Grupp&gt;"><g id="_Grupp_184" data-name="&lt;Grupp&gt;"><path id="_Bana_47" data-name="&lt;Bana&gt;" d="M156.29,606.69a21.21,21.21,0,0,1,3.28.17,21.15,21.15,0,0,1-3.3-7.47l-.4.11c-2.1.61-4.14,1.3-6.15,2A17.45,17.45,0,0,1,156.29,606.69Z" transform="translate(-96.31 -106.85)"/></g></g></g><g id="_Grupp_185" data-name="&lt;Grupp&gt;"><g id="_Grupp_186" data-name="&lt;Grupp&gt;"><g id="_Grupp_187" data-name="&lt;Grupp&gt;"><path id="_Bana_48" data-name="&lt;Bana&gt;" class="cls-2" d="M458.77,615.65s10.24,56.88-34.89,95.16" transform="translate(-96.31 -106.85)"/></g></g><g id="_Grupp_188" data-name="&lt;Grupp&gt;"><g id="_Grupp_189" data-name="&lt;Grupp&gt;"><path id="_Bana_49" data-name="&lt;Bana&gt;" class="cls-3" d="M423.89,721.6a10.79,10.79,0,0,1-7-19c39.92-33.86,31.34-84.51,31.25-85a10.79,10.79,0,1,1,21.24-3.83c.47,2.58,10.78,63.48-38.53,105.3A10.75,10.75,0,0,1,423.89,721.6Z" transform="translate(-96.31 -106.85)"/></g></g></g><g id="_Grupp_190" data-name="&lt;Grupp&gt;"><g id="_Grupp_191" data-name="&lt;Grupp&gt;"><g id="_Grupp_192" data-name="&lt;Grupp&gt;"><path id="_Bana_50" data-name="&lt;Bana&gt;" class="cls-2" d="M365.44,588.15C352.22,571.39,326,536.58,309.36,531c-41.71-13.94-77.79-24.36-77.79-24.36S170.66,551.41,206.37,682c0,0,72.21,31.8,129.79-10.13Z" transform="translate(-96.31 -106.85)"/></g></g><g id="_Grupp_193" data-name="&lt;Grupp&gt;"><g id="_Grupp_194" data-name="&lt;Grupp&gt;"><path id="_Bana_51" data-name="&lt;Bana&gt;" class="cls-1" d="M204.92,609.18s55.33,31,134.48,20.7l-13.09,43.29s-103.24,27.45-118.2,14.11S187.56,606.47,204.92,609.18Z" transform="translate(-96.31 -106.85)"/></g></g><g id="_Grupp_195" data-name="&lt;Grupp&gt;"><g id="_Grupp_196" data-name="&lt;Grupp&gt;"><path id="_Stansad_bana_24" data-name="&lt;Stansad bana&gt;" class="cls-3" d="M266,704.42a173,173,0,0,1-64-12.56,10.8,10.8,0,0,1-6.06-7C158.72,548.67,222.45,500,225.18,498a10.79,10.79,0,0,1,9.38-1.67c.37.11,36.78,10.64,78.22,24.49,17,5.68,37,29.9,57.73,56.36l3.4,4.33a10.79,10.79,0,0,1,1.72,10.25l-29.29,83.7a10.77,10.77,0,0,1-3.83,5.16C317.34,698.91,289.92,704.42,266,704.42Zm-50.66-30.54c15.76,5.54,68.43,20.5,111.73-8.86l26.19-74.86c-10.69-13.64-35.19-44.85-47.36-48.91-31.43-10.51-59.9-19.08-71.66-22.56C222.69,530.46,189.69,574.34,215.38,673.88Z" transform="translate(-96.31 -106.85)"/></g></g></g></g></g></g></svg>