<svg id="Layer_1" data-name="Layer 1" xmlns="http://www.w3.org/2000/svg" viewBox="0 0 1227.35 1238.97"><defs><style>.cls-1{fill:#bdbdbd;}.cls-2{fill:#fff;}.cls-3{fill:#263238;}.cls-4{fill:#4fc3f7;}.cls-5{fill:#fafafa;}.cls-6{fill:#212121;}.cls-7{fill:none;stroke:#000;stroke-linecap:round;stroke-linejoin:round;stroke-width:0;}.cls-8{fill:#37474f;}.cls-9{fill:#039be5;}</style></defs><title>spaceman</title><g id="_Grupp_" data-name="&lt;Grupp&gt;"><g id="_Grupp_2" data-name="&lt;Grupp&gt;"><g id="_Grupp_3" data-name="&lt;Grupp&gt;"><g id="_Grupp_4" data-name="&lt;Grupp&gt;"><ellipse id="_Bana_" data-name="&lt;Bana&gt;" class="cls-1" cx="698.86" cy="1173.89" rx="487.68" ry="65.07"/></g></g><g id="_Grupp_5" data-name="&lt;Grupp&gt;"><g id="_Grupp_6" data-name="&lt;Grupp&gt;"><g id="_Grupp_7" data-name="&lt;Grupp&gt;"><g id="_Grupp_8" data-name="&lt;Grupp&gt;"><g id="_Grupp_9" data-name="&lt;Grupp&gt;"><path id="_Bana_2" data-name="&lt;Bana&gt;" class="cls-2" d="M1038.06,778l-41.61,57.45a22.47,22.47,0,0,0-1.34,24.26h0a22.45,22.45,0,0,0,31.61,7.85l24.94-15.9Z" transform="translate(0 0.16)"/></g></g><g id="_Grupp_10" data-name="&lt;Grupp&gt;"><g id="_Grupp_11" data-name="&lt;Grupp&gt;"><path id="_Stansad_bana_" data-name="&lt;Stansad bana&gt;" class="cls-3" d="M1014.6,881.84a33.25,33.25,0,0,1-26.89-52.75l41.61-57.45a10.79,10.79,0,0,1,19.35,4.37l13.6,73.66a10.8,10.8,0,0,1-4.81,11.06l-24.93,15.9A33.4,33.4,0,0,1,1014.6,881.84ZM1032,804.71l-26.83,37a11.68,11.68,0,0,0,6.64,18.17,11.55,11.55,0,0,0,9.09-1.49l18.8-12Z" transform="translate(0 0.16)"/></g></g></g><g id="_Grupp_12" data-name="&lt;Grupp&gt;"><g id="_Grupp_13" data-name="&lt;Grupp&gt;"><g id="_Grupp_14" data-name="&lt;Grupp&gt;"><path id="_Bana_3" data-name="&lt;Bana&gt;" class="cls-2" d="M950.71,503.77s143.9,51.75,178.74,233.85L1047,792s-17.3-68.71-81-114.27Z" transform="translate(0 0.16)"/></g></g><g id="_Grupp_15" data-name="&lt;Grupp&gt;"><g id="_Grupp_16" data-name="&lt;Grupp&gt;"><path id="_Bana_4" data-name="&lt;Bana&gt;" class="cls-1" d="M986.67,597.41s67.87,79.54,78.83,142.45l-24.63,27.58-72.79-96.52Z" transform="translate(0 0.16)"/></g></g><g id="_Grupp_17" data-name="&lt;Grupp&gt;"><g id="_Grupp_18" data-name="&lt;Grupp&gt;"><path id="_Stansad_bana_2" data-name="&lt;Stansad bana&gt;" class="cls-3" d="M1047,807.1a15.13,15.13,0,0,1-14.65-11.42c-.15-.6-17-64.09-75.16-105.67a15.12,15.12,0,0,1-6.26-11L935.65,505.09a15.11,15.11,0,0,1,20.17-15.54c1.58.57,39.19,14.34,81.21,51.54,38.55,34.13,88.46,95.44,107.26,193.69a15.12,15.12,0,0,1-6.52,15.46l-82.44,54.36A15.11,15.11,0,0,1,1047,807.1ZM980.45,669.62c42.9,32.82,64.73,74.78,74.5,99l57.64-38c-14.72-67.26-46.52-123.08-94.59-166a281.35,281.35,0,0,0-49.92-35.74Z" transform="translate(0 0.16)"/></g></g></g><g id="_Grupp_19" data-name="&lt;Grupp&gt;"><g id="_Grupp_20" data-name="&lt;Grupp&gt;"><g id="_Grupp_21" data-name="&lt;Grupp&gt;"><path id="_Bana_5" data-name="&lt;Bana&gt;" class="cls-2" d="M1037.77,766.94s12.28,75.46,17.1,108.53l131.67-49s-3.5-68.39-60.92-106.54Z" transform="translate(0 0.16)"/></g></g><g id="_Grupp_22" data-name="&lt;Grupp&gt;"><g id="_Grupp_23" data-name="&lt;Grupp&gt;"><polygon id="_Bana_6" data-name="&lt;Bana&gt;" class="cls-1" points="1069.46 750.14 1096.32 858.38 1054.87 875.64 1037.77 767.1 1069.46 750.14"/></g></g><g id="_Grupp_24" data-name="&lt;Grupp&gt;"><g id="_Grupp_25" data-name="&lt;Grupp&gt;"><path id="_Stansad_bana_3" data-name="&lt;Stansad bana&gt;" class="cls-3" d="M1054.87,886.26a10.78,10.78,0,0,1-10.68-9.23c-4.75-32.6-17-107.6-17.07-108.36a10.79,10.79,0,0,1,5.56-11.25l87.85-47a10.79,10.79,0,0,1,11.07.52c61.24,40.69,65.57,112,65.72,115a10.8,10.8,0,0,1-7,10.67l-131.68,49A10.59,10.59,0,0,1,1054.87,886.26Zm-5.21-113.44c2.77,17.12,9.57,59.37,13.91,87.89l111.25-41.4c-2.75-17.17-13.07-59.19-50-86.73Z" transform="translate(0 0.16)"/></g></g></g><g id="_Grupp_26" data-name="&lt;Grupp&gt;"><g id="_Grupp_27" data-name="&lt;Grupp&gt;"><g id="_Grupp_28" data-name="&lt;Grupp&gt;"><path id="_Bana_7" data-name="&lt;Bana&gt;" class="cls-2" d="M1186.12,826.46l28.48,61.31a20.7,20.7,0,0,1-11,27.91h0a20.71,20.71,0,0,1-26-9.24l-34.94-63.83Z" transform="translate(0 0.16)"/></g></g><g id="_Grupp_29" data-name="&lt;Grupp&gt;"><g id="_Grupp_30" data-name="&lt;Grupp&gt;"><path id="_Stansad_bana_4" data-name="&lt;Stansad bana&gt;" class="cls-3" d="M1195.83,928a31.49,31.49,0,0,1-27.64-16.38l-34.94-63.84a10.78,10.78,0,0,1,5.7-15.29l43.4-16.16a10.78,10.78,0,0,1,13.55,5.57l28.49,61.31a31.52,31.52,0,0,1-16.68,42.46A31.68,31.68,0,0,1,1195.83,928Zm-37.66-79.64,28.95,52.89a9.92,9.92,0,0,0,12.44,4.42,9.92,9.92,0,0,0,5.26-13.36l-24.29-52.27Z" transform="translate(0 0.16)"/></g></g></g><g id="_Grupp_31" data-name="&lt;Grupp&gt;"><g id="_Grupp_32" data-name="&lt;Grupp&gt;"><g id="_Grupp_33" data-name="&lt;Grupp&gt;"><path id="_Bana_8" data-name="&lt;Bana&gt;" class="cls-2" d="M1149.1,840.23,1168.23,927a20.71,20.71,0,0,1-17.84,25l-5.23.61a20.72,20.72,0,0,1-22.7-16.51l-16-80Z" transform="translate(0 0.16)"/></g></g><g id="_Grupp_34" data-name="&lt;Grupp&gt;"><g id="_Grupp_35" data-name="&lt;Grupp&gt;"><path id="_Stansad_bana_5" data-name="&lt;Stansad bana&gt;" class="cls-3" d="M1142.82,963.54a31.71,31.71,0,0,1-30.94-25.33l-16-80a10.79,10.79,0,0,1,6.82-12.23l42.62-15.87a10.8,10.8,0,0,1,14.31,7.79l19.13,86.74a31.5,31.5,0,0,1-27.14,38.08l-5.23.6A31,31,0,0,1,1142.82,963.54Zm-24-100.53,14.19,71a10,10,0,0,0,10.86,7.91l5.23-.61a9.91,9.91,0,0,0,8.55-12l-16.46-74.61Z" transform="translate(0 0.16)"/></g></g></g><g id="_Grupp_36" data-name="&lt;Grupp&gt;"><g id="_Grupp_37" data-name="&lt;Grupp&gt;"><g id="_Grupp_38" data-name="&lt;Grupp&gt;"><path id="_Bana_9" data-name="&lt;Bana&gt;" class="cls-2" d="M1054.44,875.47l-2.64,72.89a20.71,20.71,0,0,0,22.69,21.37l10.42-1a20.72,20.72,0,0,0,18.71-20l2.85-92.64Z" transform="translate(0 0.16)"/></g></g><g id="_Grupp_39" data-name="&lt;Grupp&gt;"><g id="_Grupp_40" data-name="&lt;Grupp&gt;"><path id="_Stansad_bana_6" data-name="&lt;Stansad bana&gt;" class="cls-3" d="M1072.49,980.62A31.51,31.51,0,0,1,1041,948l2.64-72.89a10.79,10.79,0,0,1,7-9.72l52-19.37a10.78,10.78,0,0,1,14.55,10.45l-2.86,92.63A31.57,31.57,0,0,1,1086,979.46l-10.42,1C1074.52,980.57,1073.5,980.62,1072.49,980.62ZM1065,883.07l-2.39,65.68A9.93,9.93,0,0,0,1073.45,959l10.42-1a9.94,9.94,0,0,0,9-9.56l2.36-76.59Z" transform="translate(0 0.16)"/></g></g></g><g id="_Grupp_41" data-name="&lt;Grupp&gt;"><g id="_Grupp_42" data-name="&lt;Grupp&gt;"><g id="_Grupp_43" data-name="&lt;Grupp&gt;"><path id="_Bana_10" data-name="&lt;Bana&gt;" class="cls-3" d="M1014.72,737.55a10.81,10.81,0,0,1-10.3-14c23.86-76.09,77.65-103.78,79.92-104.92a10.79,10.79,0,0,1,9.71,19.28c-.66.34-48.08,25.29-69,92.1A10.81,10.81,0,0,1,1014.72,737.55Z" transform="translate(0 0.16)"/></g></g></g></g><g id="_Grupp_44" data-name="&lt;Grupp&gt;"><g id="_Grupp_45" data-name="&lt;Grupp&gt;"><g id="_Grupp_46" data-name="&lt;Grupp&gt;"><path id="_Bana_11" data-name="&lt;Bana&gt;" class="cls-2" d="M95.22,571.56l-48.86-8a22.88,22.88,0,0,1-19.12-23.62l.07-1.42a22.86,22.86,0,0,1,27.2-21.39l48.79,9.48a22.83,22.83,0,0,1,18.09,18.12h0A22.86,22.86,0,0,1,95.22,571.56Z" transform="translate(0 0.16)"/></g></g><g id="_Grupp_47" data-name="&lt;Grupp&gt;"><g id="_Grupp_48" data-name="&lt;Grupp&gt;"><path id="_Stansad_bana_7" data-name="&lt;Stansad bana&gt;" class="cls-3" d="M98.93,582.66a33.61,33.61,0,0,1-5.46-.45h0l-48.86-8.05A33.66,33.66,0,0,1,16.46,539.4l.07-1.42a33.64,33.64,0,0,1,40-31.49l48.8,9.47a33.66,33.66,0,0,1-6.43,66.7Zm-2-21.75a12.08,12.08,0,0,0,13.82-14.19,12,12,0,0,0-9.56-9.57l-48.79-9.47A12.07,12.07,0,0,0,38.09,539L38,540.39a12.08,12.08,0,0,0,10.1,12.47Z" transform="translate(0 0.16)"/></g></g></g><g id="_Grupp_49" data-name="&lt;Grupp&gt;"><g id="_Grupp_50" data-name="&lt;Grupp&gt;"><g id="_Grupp_51" data-name="&lt;Grupp&gt;"><path id="_Bana_12" data-name="&lt;Bana&gt;" class="cls-2" d="M95.68,513.58,27.13,493.1a22.87,22.87,0,0,1-15.88-26.41L13,458.2a22.87,22.87,0,0,1,27.83-17.72l69.87,17a22.87,22.87,0,0,1,16.76,27.83l-3,12A22.87,22.87,0,0,1,95.68,513.58Z" transform="translate(0 0.16)"/></g></g><g id="_Grupp_52" data-name="&lt;Grupp&gt;"><g id="_Grupp_53" data-name="&lt;Grupp&gt;"><path id="_Stansad_bana_8" data-name="&lt;Stansad bana&gt;" class="cls-3" d="M102.29,525.35a34.06,34.06,0,0,1-9.7-1.43h0L24,503.44A33.51,33.51,0,0,1,.67,464.57l1.71-8.49a33.67,33.67,0,0,1,41-26.09l69.88,17a33.67,33.67,0,0,1,24.66,41l-3,12a33.72,33.72,0,0,1-32.56,25.41Zm-3.52-22.11a12.08,12.08,0,0,0,15.16-8.61l3-11.95a12.08,12.08,0,0,0-8.85-14.7L38.23,451a12.06,12.06,0,0,0-14.69,9.35l-1.7,8.5a12,12,0,0,0,8.38,13.94Z" transform="translate(0 0.16)"/></g></g></g><g id="_Grupp_54" data-name="&lt;Grupp&gt;"><g id="_Grupp_55" data-name="&lt;Grupp&gt;"><g id="_Grupp_56" data-name="&lt;Grupp&gt;"><path id="_Bana_13" data-name="&lt;Bana&gt;" class="cls-2" d="M134.83,399.64,79.67,374.1A22.86,22.86,0,0,0,49.8,384.25l-2.93,5.59a22.86,22.86,0,0,0,11,31.51L113.73,446a22.86,22.86,0,0,0,29.85-11l2.26-4.71A22.86,22.86,0,0,0,134.83,399.64Z" transform="translate(0 0.16)"/></g></g><g id="_Grupp_57" data-name="&lt;Grupp&gt;"><g id="_Grupp_58" data-name="&lt;Grupp&gt;"><path id="_Stansad_bana_9" data-name="&lt;Stansad bana&gt;" class="cls-3" d="M123.06,458.79a33.71,33.71,0,0,1-13.69-2.91L53.54,431.23a33.67,33.67,0,0,1-16.23-46.39l2.92-5.59a33.63,33.63,0,0,1,44-14.95l55.16,25.54h0a33.65,33.65,0,0,1,16.21,45.1l-2.26,4.71A33.5,33.5,0,0,1,123.06,458.79Zm-53-76a12.06,12.06,0,0,0-10.7,6.48l-2.92,5.59a12.07,12.07,0,0,0,5.82,16.64l55.83,24.66a12,12,0,0,0,15.76-5.83l2.26-4.7a12.09,12.09,0,0,0-5.81-16.18h0L75.13,383.89A12,12,0,0,0,70.06,382.77Z" transform="translate(0 0.16)"/></g></g></g><g id="_Grupp_59" data-name="&lt;Grupp&gt;"><g id="_Grupp_60" data-name="&lt;Grupp&gt;"><g id="_Grupp_61" data-name="&lt;Grupp&gt;"><path id="_Bana_14" data-name="&lt;Bana&gt;" class="cls-2" d="M447.08,533.58,269.13,481.13l-39.13,85L453,679.4S490,573.71,447.08,533.58Z" transform="translate(0 0.16)"/></g></g><g id="_Grupp_62" data-name="&lt;Grupp&gt;"><g id="_Grupp_63" data-name="&lt;Grupp&gt;"><polygon id="_Bana_15" data-name="&lt;Bana&gt;" class="cls-1" points="256.4 534.73 425.69 586.68 425.69 664.78 239.6 565 256.4 534.73"/></g></g><g id="_Grupp_64" data-name="&lt;Grupp&gt;"><g id="_Grupp_65" data-name="&lt;Grupp&gt;"><path id="_Stansad_bana_10" data-name="&lt;Stansad bana&gt;" class="cls-3" d="M453,694.51a15.11,15.11,0,0,1-6.84-1.64l-223-113.24a15.12,15.12,0,0,1-6.89-19.79l39.13-85a15.11,15.11,0,0,1,18-8.18l178,52.44a15.15,15.15,0,0,1,6.06,3.47c21.5,20.13,29.47,54.06,23.7,100.84a325.63,325.63,0,0,1-13.85,61A15.12,15.12,0,0,1,453,694.51ZM249.8,559.27l194,98.49c8.62-32.52,16.86-86.6-4.7-110.8L277.39,499.32Z" transform="translate(0 0.16)"/></g></g></g><g id="_Grupp_66" data-name="&lt;Grupp&gt;"><g id="_Grupp_67" data-name="&lt;Grupp&gt;"><g id="_Grupp_68" data-name="&lt;Grupp&gt;"><path id="_Bana_16" data-name="&lt;Bana&gt;" class="cls-4" d="M498.56,704.26l-55.64-10.71s-31.22-101.14,19.31-195l81.92,26.63Z" transform="translate(0 0.16)"/></g></g><g id="_Grupp_69" data-name="&lt;Grupp&gt;"><g id="_Grupp_70" data-name="&lt;Grupp&gt;"><path id="_Stansad_bana_11" data-name="&lt;Stansad bana&gt;" class="cls-3" d="M508.1,719.29,432.84,704.8l-2.29-7.43c-1.34-4.34-32.23-107.45,20.28-204.93l5.12-9.51L559.7,516.64Zm-54.71-36.92L489,689.23l39.59-155.46-59.84-19.44C435,585.42,448,659.26,453.39,682.37Z" transform="translate(0 0.16)"/></g></g></g><g id="_Grupp_71" data-name="&lt;Grupp&gt;"><g id="_Grupp_72" data-name="&lt;Grupp&gt;"><g id="_Grupp_73" data-name="&lt;Grupp&gt;"><path id="_Bana_17" data-name="&lt;Bana&gt;" class="cls-4" d="M912.53,704.26l55.64-10.71s31.23-101.14-19.31-195l-81.92,26.63Z" transform="translate(0 0.16)"/></g></g><g id="_Grupp_74" data-name="&lt;Grupp&gt;"><g id="_Grupp_75" data-name="&lt;Grupp&gt;"><path id="_Stansad_bana_12" data-name="&lt;Stansad bana&gt;" class="cls-3" d="M903,719.29l-51.6-202.65,103.75-33.71,5.12,9.51c52.51,97.48,21.63,200.59,20.29,204.93l-2.3,7.43Zm-20.5-185.52,39.58,155.46,35.61-6.85c5.37-23.15,18.28-97.17-15.36-168Z" transform="translate(0 0.16)"/></g></g></g><g id="_Grupp_76" data-name="&lt;Grupp&gt;"><g id="_Grupp_77" data-name="&lt;Grupp&gt;"><g id="_Grupp_78" data-name="&lt;Grupp&gt;"><g id="_Grupp_79" data-name="&lt;Grupp&gt;"><polygon id="_Bana_18" data-name="&lt;Bana&gt;" class="cls-2" points="515.47 838.09 462.35 1092.18 606.57 1133.2 634.95 965.66 515.47 838.09"/></g></g><g id="_Grupp_80" data-name="&lt;Grupp&gt;"><g id="_Grupp_81" data-name="&lt;Grupp&gt;"><path id="_Bana_19" data-name="&lt;Bana&gt;" class="cls-1" d="M520,886.26s16,60.66,56.69,94.36l-28.35,124.64,64.73,6.9L635,965.49Z" transform="translate(0 0.16)"/></g></g><g id="_Grupp_82" data-name="&lt;Grupp&gt;"><g id="_Grupp_83" data-name="&lt;Grupp&gt;"><path id="_Stansad_bana_13" data-name="&lt;Stansad bana&gt;" class="cls-3" d="M606.56,1143.83a11,11,0,0,1-2.95-.41l-144.21-41a10.8,10.8,0,0,1-7.62-12.59l53.13-254.1a10.79,10.79,0,0,1,18.44-5.17L642.83,958.12a10.81,10.81,0,0,1,2.76,9.18l-28.38,167.54a10.82,10.82,0,0,1-10.65,9ZM475,1084.39l123,35L623.41,969,521.79,860.45Z" transform="translate(0 0.16)"/></g></g></g><g id="_Grupp_84" data-name="&lt;Grupp&gt;"><g id="_Grupp_85" data-name="&lt;Grupp&gt;"><g id="_Grupp_86" data-name="&lt;Grupp&gt;"><path id="_Bana_20" data-name="&lt;Bana&gt;" class="cls-5" d="M376.26,1158.68s8-94.86,125-94.86,126.74,95,126.74,95S515.38,1198.36,376.26,1158.68Z" transform="translate(0 0.16)"/></g></g><g id="_Grupp_87" data-name="&lt;Grupp&gt;"><g id="_Grupp_88" data-name="&lt;Grupp&gt;"><path id="_Bana_21" data-name="&lt;Bana&gt;" class="cls-1" d="M491.46,1081.34s56.07,28.26,57.19,92.86L626,1151l-47.54-64S510.85,1062,491.46,1081.34Z" transform="translate(0 0.16)"/></g></g><g id="_Grupp_89" data-name="&lt;Grupp&gt;"><g id="_Grupp_90" data-name="&lt;Grupp&gt;"><path id="_Stansad_bana_14" data-name="&lt;Stansad bana&gt;" class="cls-3" d="M503.94,1193.72a482.68,482.68,0,0,1-132.42-18.44,17.26,17.26,0,0,1-12.47-18.06c.1-1.16,2.62-28.67,21.7-55.89,17.52-25,52.64-54.78,120.46-54.78s103.3,29.74,121.24,54.69c19.52,27.17,22.56,54.65,22.68,55.81a17.27,17.27,0,0,1-11.46,18.07C630.5,1176.23,579.4,1193.72,503.94,1193.72Zm-107.28-47.49c96.59,23.68,178.39,8.63,210.76.5-7.66-22.84-31.92-65.65-106.21-65.65-42.53,0-73.54,13.49-92.18,40.08A93.5,93.5,0,0,0,396.66,1146.23Z" transform="translate(0 0.16)"/></g></g></g><g id="_Grupp_91" data-name="&lt;Grupp&gt;"><g id="_Grupp_92" data-name="&lt;Grupp&gt;"><g id="_Grupp_93" data-name="&lt;Grupp&gt;"><polygon id="_Bana_22" data-name="&lt;Bana&gt;" class="cls-2" points="884.83 838.09 937.95 1092.18 793.74 1133.2 765.35 965.66 884.83 838.09"/></g></g><g id="_Grupp_94" data-name="&lt;Grupp&gt;"><g id="_Grupp_95" data-name="&lt;Grupp&gt;"><path id="_Bana_23" data-name="&lt;Bana&gt;" class="cls-1" d="M880.28,886.26s-16,60.66-56.69,94.36l28.35,124.64-64.73,6.9L765.35,965.49Z" transform="translate(0 0.16)"/></g></g><g id="_Grupp_96" data-name="&lt;Grupp&gt;"><g id="_Grupp_97" data-name="&lt;Grupp&gt;"><path id="_Stansad_bana_15" data-name="&lt;Stansad bana&gt;" class="cls-3" d="M793.74,1143.83a10.82,10.82,0,0,1-10.65-9L754.71,967.3a10.81,10.81,0,0,1,2.76-9.18L877,830.54a10.79,10.79,0,0,1,18.44,5.17l53.13,254.1a10.81,10.81,0,0,1-7.62,12.59l-144.21,41A11,11,0,0,1,793.74,1143.83ZM776.89,969l25.48,150.39,123-35L878.51,860.45Z" transform="translate(0 0.16)"/></g></g></g><g id="_Grupp_98" data-name="&lt;Grupp&gt;"><g id="_Grupp_99" data-name="&lt;Grupp&gt;"><g id="_Grupp_100" data-name="&lt;Grupp&gt;"><path id="_Bana_24" data-name="&lt;Bana&gt;" class="cls-5" d="M1024,1158.68s-8-94.86-124.95-94.86-126.74,95-126.74,95S884.92,1198.36,1024,1158.68Z" transform="translate(0 0.16)"/></g></g><g id="_Grupp_101" data-name="&lt;Grupp&gt;"><g id="_Grupp_102" data-name="&lt;Grupp&gt;"><path id="_Bana_25" data-name="&lt;Bana&gt;" class="cls-1" d="M908.84,1081.34s-56.07,28.26-57.19,92.86L774.26,1151l47.54-64S889.45,1062,908.84,1081.34Z" transform="translate(0 0.16)"/></g></g><g id="_Grupp_103" data-name="&lt;Grupp&gt;"><g id="_Grupp_104" data-name="&lt;Grupp&gt;"><path id="_Stansad_bana_16" data-name="&lt;Stansad bana&gt;" class="cls-3" d="M896.36,1193.72c-75.47,0-126.56-17.49-129.73-18.6a17.27,17.27,0,0,1-11.46-18.07c.12-1.16,3.16-28.64,22.68-55.81,17.94-25,53.53-54.69,121.24-54.69s102.94,29.79,120.46,54.78c19.08,27.22,21.6,54.73,21.7,55.89a17.26,17.26,0,0,1-12.47,18.06A482.68,482.68,0,0,1,896.36,1193.72Zm-103.47-47c32.36,8.13,114.19,23.19,210.81-.52-7.27-22.79-30.72-65.13-104.61-65.13C824.84,1081.08,800.57,1123.85,792.89,1146.73Z" transform="translate(0 0.16)"/></g></g></g><g id="_Grupp_105" data-name="&lt;Grupp&gt;"><g id="_Grupp_106" data-name="&lt;Grupp&gt;"><g id="_Grupp_107" data-name="&lt;Grupp&gt;"><path id="_Bana_26" data-name="&lt;Bana&gt;" class="cls-5" d="M895.67,545.49c-16.18-39-191.2-6.07-191.2-6.07s-173.21-32.92-189.39,6.07c0,0-53.46,63.43-16.38,236.43s164.75,203,207.93,203,168.52-30,205.6-203S895.67,545.49,895.67,545.49Z" transform="translate(0 0.16)"/></g></g><g id="_Grupp_108" data-name="&lt;Grupp&gt;"><g id="_Grupp_109" data-name="&lt;Grupp&gt;"><path id="_Bana_27" data-name="&lt;Bana&gt;" class="cls-1" d="M563.76,555.74s-34,201.34,43.66,373.85L622.47,942l-45.76-232.9,5.16-158.9S567.34,527,563.76,555.74Z" transform="translate(0 0.16)"/></g></g><g id="_Grupp_110" data-name="&lt;Grupp&gt;"><g id="_Grupp_111" data-name="&lt;Grupp&gt;"><path id="_Bana_28" data-name="&lt;Bana&gt;" class="cls-1" d="M895.67,545.49c-16.18-39-191.2-6.07-191.2-6.07s-7.83-1.48-20.29-3.45c-71.27,5.9-135.51,10.86-145.43,10.46,0,0,112.89,47.65,238.14,45.88,0,0,56.82,148.94-19.42,365.81-3.54,10.08-59.91,26.78-50.84,26.78,43.17,0,168.52-30,205.6-203S895.67,545.49,895.67,545.49Z" transform="translate(0 0.16)"/></g></g><g id="_Grupp_112" data-name="&lt;Grupp&gt;"><g id="_Grupp_113" data-name="&lt;Grupp&gt;"><path id="_Stansad_bana_17" data-name="&lt;Stansad bana&gt;" class="cls-3" d="M706.63,1002.17c-28.48,0-73.93-10.43-116.1-39.7-55.19-38.31-91.77-97.84-108.72-176.93-35.15-164,8.84-235.82,18.39-249,11.6-23,47.9-31,116.92-25.93,39.21,2.91,76.37,9.27,87.36,11.26,11.06-2,48.63-8.35,88.26-11.26,69.6-5.1,106.19,2.9,117.81,25.92,9.58,13.19,53.71,85,18.56,249-17,79.1-53.1,138.6-107.46,176.86C780,991.72,734.92,1002.17,706.63,1002.17ZM528.37,556.53c-2,2.59-46.59,64-12.79,221.77,32.1,149.76,139,189.33,191,189.33,22,0,60-8.76,95.14-33.47,47-33.09,78.5-85.54,93.57-155.86C929.68,618.07,883,557.21,882.48,556.64a17.65,17.65,0,0,1-2.68-4.34c-.85-1-13.23-12.93-88.49-6.94-42.86,3.41-83.25,11-83.65,11a17.32,17.32,0,0,1-6.42,0c-.4-.08-40.66-7.67-83.12-11.06-74.31-5.93-86.35,6-87.16,6.95A14.48,14.48,0,0,1,528.37,556.53Z" transform="translate(0 0.16)"/></g></g></g><g id="_Grupp_114" data-name="&lt;Grupp&gt;"><g id="_Grupp_115" data-name="&lt;Grupp&gt;"><g id="_Grupp_116" data-name="&lt;Grupp&gt;"><path id="_Bana_29" data-name="&lt;Bana&gt;" class="cls-2" d="M598,526.77S535.21,725.29,635,965.49" transform="translate(0 0.16)"/></g></g><g id="_Grupp_117" data-name="&lt;Grupp&gt;"><g id="_Grupp_118" data-name="&lt;Grupp&gt;"><path id="_Bana_30" data-name="&lt;Bana&gt;" class="cls-3" d="M623,970.46c-52.43-126.26-59.85-241-56.85-314.93C569.41,575.07,585,525,585.67,522.86l24.7,7.82L598,526.77l12.35,3.9c-.15.49-15.36,49.61-18.39,126.9-2.78,71.15,4.48,181.46,54.93,303Z" transform="translate(0 0.16)"/></g></g></g><g id="_Grupp_119" data-name="&lt;Grupp&gt;"><g id="_Grupp_120" data-name="&lt;Grupp&gt;"><g id="_Grupp_121" data-name="&lt;Grupp&gt;"><path id="_Bana_31" data-name="&lt;Bana&gt;" class="cls-3" d="M787.43,970.46l-23.92-9.93c96.8-233.15,37.15-427.91,36.54-429.85l24.7-7.82c.66,2.1,16.26,52.21,19.53,132.67C847.28,729.51,839.86,844.2,787.43,970.46Z" transform="translate(0 0.16)"/></g></g></g><g id="_Grupp_122" data-name="&lt;Grupp&gt;"><g id="_Grupp_123" data-name="&lt;Grupp&gt;"><g id="_Grupp_124" data-name="&lt;Grupp&gt;"><path id="_Bana_32" data-name="&lt;Bana&gt;" class="cls-2" d="M828.55,754s-62.2,27-123.34,27-123.34-27-123.34-27" transform="translate(0 0.16)"/></g></g><g id="_Grupp_125" data-name="&lt;Grupp&gt;"><g id="_Grupp_126" data-name="&lt;Grupp&gt;"><path id="_Bana_33" data-name="&lt;Bana&gt;" class="cls-3" d="M705.21,794c-63.1,0-125.86-26.94-128.5-28.09L587,742.13c.59.26,60.57,26,118.18,26s117.59-25.69,118.19-26l10.31,23.76C831.07,767,768.31,794,705.21,794Z" transform="translate(0 0.16)"/></g></g></g><g id="_Grupp_127" data-name="&lt;Grupp&gt;"><g id="_Grupp_128" data-name="&lt;Grupp&gt;"><g id="_Grupp_129" data-name="&lt;Grupp&gt;"><rect id="_Rektangel_" data-name="&lt;Rektangel&gt;" class="cls-4" x="641.66" y="664.4" width="116.12" height="37.56"/></g><g id="_Grupp_130" data-name="&lt;Grupp&gt;"><path id="_Stansad_bana_18" data-name="&lt;Stansad bana&gt;" class="cls-6" d="M765.6,709.6H633.85V656.42H765.6ZM649.47,694H750V672.05H649.47Z" transform="translate(0 0.16)"/></g></g></g><g id="_Grupp_131" data-name="&lt;Grupp&gt;"><g id="_Grupp_132" data-name="&lt;Grupp&gt;"><g id="_Grupp_133" data-name="&lt;Grupp&gt;"><path id="_Bana_34" data-name="&lt;Bana&gt;" class="cls-3" d="M626.12,1028.41h-.31c-76.73-2.16-141-52.32-143.7-54.45A10.79,10.79,0,0,1,495.5,957c1,.76,61.7,47.85,130.92,49.8a10.79,10.79,0,0,1-.3,21.58Z" transform="translate(0 0.16)"/></g></g></g><g id="_Grupp_134" data-name="&lt;Grupp&gt;"><g id="_Grupp_135" data-name="&lt;Grupp&gt;"><g id="_Grupp_136" data-name="&lt;Grupp&gt;"><path id="_Bana_35" data-name="&lt;Bana&gt;" class="cls-3" d="M774.18,1028.41a10.79,10.79,0,0,1-.3-21.58c69.64-2,130.32-49.32,130.92-49.8A10.79,10.79,0,0,1,918.19,974c-2.7,2.13-67,52.29-143.7,54.45Z" transform="translate(0 0.16)"/></g></g></g></g><g id="_Grupp_137" data-name="&lt;Grupp&gt;"><g id="_Grupp_138" data-name="&lt;Grupp&gt;"><g id="_Grupp_139" data-name="&lt;Grupp&gt;"><path id="_Bana_36" data-name="&lt;Bana&gt;" class="cls-7" d="M447.6,763.91h0" transform="translate(0 0.16)"/></g></g></g><g id="_Grupp_140" data-name="&lt;Grupp&gt;"><g id="_Grupp_141" data-name="&lt;Grupp&gt;"><g id="_Grupp_142" data-name="&lt;Grupp&gt;"><g id="_Grupp_143" data-name="&lt;Grupp&gt;"><path id="_Bana_37" data-name="&lt;Bana&gt;" d="M588.69,176.29v0Z" transform="translate(0 0.16)"/></g></g></g><g id="_Grupp_144" data-name="&lt;Grupp&gt;"><g id="_Grupp_145" data-name="&lt;Grupp&gt;"><g id="_Grupp_146" data-name="&lt;Grupp&gt;"><g id="_Grupp_147" data-name="&lt;Grupp&gt;"><path id="_Stansad_bana_19" data-name="&lt;Stansad bana&gt;" class="cls-3" d="M1113.45,413.38h-63.34V187.1h63.34a50.24,50.24,0,0,1,50.19,50.18V363.19A50.25,50.25,0,0,1,1113.45,413.38Zm-33.12-30.22h33.12a20,20,0,0,0,20-20V237.28a20,20,0,0,0-20-20h-33.12Z" transform="translate(0 0.16)"/></g></g></g><g id="_Grupp_148" data-name="&lt;Grupp&gt;"><g id="_Grupp_149" data-name="&lt;Grupp&gt;"><g id="_Grupp_150" data-name="&lt;Grupp&gt;"><path id="_Stansad_bana_20" data-name="&lt;Stansad bana&gt;" class="cls-3" d="M349.33,413.38H286a50.25,50.25,0,0,1-50.19-50.19V237.28A50.24,50.24,0,0,1,286,187.1h63.34ZM286,217.32a20,20,0,0,0-20,20V363.19a20,20,0,0,0,20,20h33.12V217.32Z" transform="translate(0 0.16)"/></g></g></g><g id="_Grupp_151" data-name="&lt;Grupp&gt;"><g id="_Grupp_152" data-name="&lt;Grupp&gt;"><g id="_Grupp_153" data-name="&lt;Grupp&gt;"><path id="_Bana_38" data-name="&lt;Bana&gt;" class="cls-5" d="M1028,150.34C950.29,81,806.47,58.18,738.05,51a367.17,367.17,0,0,0-76.16,0C593.41,58.17,449.42,81,371.72,150.34c0,0-49.39,38.42-49.39,84.39v131c0,46,50,84.39,50,84.39C439,509.66,537.8,532.3,625.2,544.85c99,14.22,202.69-1,296.35-35.06,38.51-14,76.48-32.52,106.93-59.7,0,0,48.63-38.42,48.63-84.39v-131C1077.11,188.76,1028,150.34,1028,150.34Z" transform="translate(0 0.16)"/></g></g><g id="_Grupp_154" data-name="&lt;Grupp&gt;"><g id="_Grupp_155" data-name="&lt;Grupp&gt;"><path id="_Bana_39" data-name="&lt;Bana&gt;" class="cls-1" d="M1079.69,300.21V234.73c0-46-50.22-84.39-50.22-84.39C951.79,81,807.44,58.18,739,51a370.31,370.31,0,0,0-58.53-1.41,164.89,164.89,0,0,0-16.25,18.58s219-13,286.53,177.65c46.09,130.2-86.6,243.66-187.56,301A672.54,672.54,0,0,0,922,509.79c38.52-14,77.55-32.52,108-59.7,0,0,49.71-38.42,49.71-84.39Z" transform="translate(0 0.16)"/></g></g><g id="_Grupp_156" data-name="&lt;Grupp&gt;"><g id="_Grupp_157" data-name="&lt;Grupp&gt;"><path id="_Stansad_bana_21" data-name="&lt;Stansad bana&gt;" class="cls-3" d="M701.32,567.46A553.37,553.37,0,0,1,622.74,562c-83.51-12-188.55-34-261.13-98.25a102.61,102.61,0,0,1-8.83-7.64,192.08,192.08,0,0,1-18.87-20c-19.14-23.53-28.85-47.19-28.85-70.33v-131c0-51.66,49.59-92.86,55.55-97.62,79.93-71,221.9-95.17,299.49-103.25a385.7,385.7,0,0,1,79.74,0C817.35,42,959.18,66.11,1039.09,137.12c5.86,4.71,55.29,45.93,55.29,97.61v131c0,51.73-49.1,93-54.75,97.58-28.1,25-64.8,45.51-112.18,62.74C852,553.47,775.09,567.46,701.32,567.46ZM378.51,432.82h.37l4.91,4.39c65.71,58.66,164.84,79.2,243.86,90.55,91,13.06,190.55,1.24,288-34.2,43.37-15.77,76.51-34.2,101.33-56.35l.79-.67c.39-.31,42.08-33.94,42.08-70.84v-131c0-36.53-42.09-70.45-42.52-70.79l-.86-.72C941.16,96,795.42,74.39,736.26,68.22a351.53,351.53,0,0,0-72.59,0c-59.23,6.17-205.13,27.77-280.45,95l-.9.75c-.4.31-42.72,33.94-42.72,70.76v131C339.6,393,364.64,420.66,378.51,432.82Z" transform="translate(0 0.16)"/></g></g></g><g id="_Grupp_158" data-name="&lt;Grupp&gt;"><g id="_Grupp_159" data-name="&lt;Grupp&gt;"><path id="_Bana_40" data-name="&lt;Bana&gt;" class="cls-1" d="M971.39,208.78C939.48,188.83,900,174.53,861,164.3a640.79,640.79,0,0,0-325.09,0c-38.95,10.23-78.46,24.52-110.37,44.46a31.36,31.36,0,0,0-14.86,26.56V399.69a31.15,31.15,0,0,0,14.6,26.4c74.22,46.47,169.3,61.62,255.31,68.48,30.73,2.45,61.88-2,92.28-6.36,46.6-6.69,93.19-16.56,137.44-32.86,21.36-7.87,42.27-17.3,61.58-29.43a31,31,0,0,0,14.35-26.23V235.32A31.34,31.34,0,0,0,971.39,208.78Z" transform="translate(0 0.16)"/></g></g><g id="_Grupp_160" data-name="&lt;Grupp&gt;"><g id="_Grupp_161" data-name="&lt;Grupp&gt;"><path id="_Bana_41" data-name="&lt;Bana&gt;" class="cls-3" d="M971.39,191.51C939.48,171.56,900,157.26,861,147a640.79,640.79,0,0,0-325.09,0c-38.95,10.23-78.46,24.53-110.37,44.46a31.36,31.36,0,0,0-14.86,26.57V382.42a31.15,31.15,0,0,0,14.6,26.4c74.22,46.47,169.3,61.62,255.31,68.48,30.73,2.45,61.88-2,92.28-6.36,46.6-6.69,93.19-16.56,137.44-32.86,21.36-7.86,42.27-17.3,61.58-29.43a30.92,30.92,0,0,0,14.35-26.23V218.06A31.36,31.36,0,0,0,971.39,191.51Z" transform="translate(0 0.16)"/></g></g><g id="_Grupp_162" data-name="&lt;Grupp&gt;"><g id="_Grupp_163" data-name="&lt;Grupp&gt;"><path id="_Bana_42" data-name="&lt;Bana&gt;" class="cls-8" d="M964.37,204.32c-27.08-16.92-63.25-31.27-106.65-42.67a626,626,0,0,0-317.56,0c-43.4,11.39-79.36,25.74-106.44,42.66a16.46,16.46,0,0,0-8,13.75v33.62c100,64.37,266,123.26,547,110.32V218.06C972.69,212.49,969.22,207.35,964.37,204.32Z" transform="translate(0 0.16)"/></g></g><g id="_Grupp_164" data-name="&lt;Grupp&gt;"><g id="_Grupp_165" data-name="&lt;Grupp&gt;"><g id="_Grupp_166" data-name="&lt;Grupp&gt;"><path id="_Bana_43" data-name="&lt;Bana&gt;" class="cls-4" d="M698.46,12.79c-169.85,0-167.87,48.12-167.87,48.12s27.61,20.88,53.65,80.49c9.76,22.35,28.27,36.77,47.58,46.07,40.82,19.65,92.45,19.65,133.28,0,19.31-9.3,37.81-23.72,47.58-46.07,26-59.61,53.65-80.49,53.65-80.49S868.31,12.79,698.46,12.79Z" transform="translate(0 0.16)"/></g></g><g id="_Grupp_167" data-name="&lt;Grupp&gt;"><g id="_Grupp_168" data-name="&lt;Grupp&gt;"><path id="_Bana_44" data-name="&lt;Bana&gt;" class="cls-9" d="M813.11,141.4c26-59.61,53.65-80.49,53.65-80.49s2-48.12-167.87-48.12c-68.11,0-108.58,7.74-132.63,17a106.59,106.59,0,0,0-18.44,25.73S715.7,21.07,775.47,73.13s-77.89,130.66-155.39,92c-24.91-12.43-20.84-4-3.87,13.15a123.37,123.37,0,0,0,16,9.22c40.82,19.65,92.45,19.65,133.27,0C784.84,178.17,803.34,163.75,813.11,141.4Z" transform="translate(0 0.16)"/></g></g><g id="_Grupp_169" data-name="&lt;Grupp&gt;"><g id="_Grupp_170" data-name="&lt;Grupp&gt;"><path id="_Stansad_bana_22" data-name="&lt;Stansad bana&gt;" class="cls-3" d="M698.46,215.23a167.2,167.2,0,0,1-72.25-16.09c-26-12.48-44.06-30.17-53.84-52.56-24-55.06-49.41-75.19-49.66-75.39L518,67.5l-.32-6c-.11-2.78.35-12.69,11.06-23.85,24-25.06,81.16-37.76,169.75-37.76s145.7,12.7,169.75,37.76c10.71,11.16,11.17,21.07,11.06,23.85L879,67.56l-4.88,3.68c-.19.15-25.54,20.28-49.59,75.34-9.79,22.39-27.9,40.08-53.84,52.56A167.2,167.2,0,0,1,698.46,215.23ZM545.89,57.37c10.67,10.7,31,34.9,50.22,78.84,7.23,16.55,21.13,29.87,41.33,39.59,37.07,17.84,85,17.84,122,0,20.2-9.72,34.1-23,41.33-39.59C820,92.35,840.29,68.15,851,57.42,843.38,48,813.25,25.74,698.46,25.74,587.92,25.74,556,46.57,547.39,55.53,547.19,55.75,546.57,56.51,545.89,57.37Z" transform="translate(0 0.16)"/></g></g></g></g><g id="_Grupp_171" data-name="&lt;Grupp&gt;"><g id="_Grupp_172" data-name="&lt;Grupp&gt;"><g id="_Grupp_173" data-name="&lt;Grupp&gt;"><rect id="_Rektangel_2" data-name="&lt;Rektangel&gt;" class="cls-4" x="803.51" y="246.02" width="64.04" height="159.14" rx="32.02" ry="32.02"/></g></g></g><g id="_Grupp_174" data-name="&lt;Grupp&gt;"><g id="_Grupp_175" data-name="&lt;Grupp&gt;"><g id="_Grupp_176" data-name="&lt;Grupp&gt;"><path id="_Bana_45" data-name="&lt;Bana&gt;" class="cls-4" d="M554.91,405h0a32,32,0,0,0,32-32V277.88a32,32,0,0,0-32-32h0a32,32,0,0,0-32,32V373A32,32,0,0,0,554.91,405Z" transform="translate(0 0.16)"/></g></g></g></g><g id="_Grupp_177" data-name="&lt;Grupp&gt;"><g id="_Grupp_178" data-name="&lt;Grupp&gt;"><g id="_Grupp_179" data-name="&lt;Grupp&gt;"><path id="_Bana_46" data-name="&lt;Bana&gt;" class="cls-2" d="M268.7,484l-63.21-130.5a23.9,23.9,0,0,0-32.91-9.41h0a23.89,23.89,0,0,0-11.1,27.38l15.42,53.33Z" transform="translate(0 0.16)"/></g></g><g id="_Grupp_180" data-name="&lt;Grupp&gt;"><g id="_Grupp_181" data-name="&lt;Grupp&gt;"><path id="_Stansad_bana_23" data-name="&lt;Stansad bana&gt;" class="cls-3" d="M268.7,494.81a10.8,10.8,0,0,1-5.85-1.72l-91.8-59.2a10.82,10.82,0,0,1-4.52-6.07l-15.41-53.33A34.69,34.69,0,0,1,215,348.4c.07.14.15.28.21.41l63.21,130.5a10.79,10.79,0,0,1-9.71,15.5Zm-82.55-76.87,56.06,36.16-46.32-95.64a13.11,13.11,0,0,0-24,10Z" transform="translate(0 0.16)"/></g></g></g><g id="_Grupp_182" data-name="&lt;Grupp&gt;"><g id="_Grupp_183" data-name="&lt;Grupp&gt;"><g id="_Grupp_184" data-name="&lt;Grupp&gt;"><path id="_Bana_47" data-name="&lt;Bana&gt;" d="M60,499.68a20.1,20.1,0,0,1,3.29.16,21.18,21.18,0,0,1-3.3-7.46l-.4.1c-2.1.61-4.14,1.31-6.15,2A17.44,17.44,0,0,1,60,499.68Z" transform="translate(0 0.16)"/></g></g></g><g id="_Grupp_185" data-name="&lt;Grupp&gt;"><g id="_Grupp_186" data-name="&lt;Grupp&gt;"><g id="_Grupp_187" data-name="&lt;Grupp&gt;"><path id="_Bana_48" data-name="&lt;Bana&gt;" class="cls-2" d="M362.46,508.64s10.24,56.88-34.89,95.15" transform="translate(0 0.16)"/></g></g><g id="_Grupp_188" data-name="&lt;Grupp&gt;"><g id="_Grupp_189" data-name="&lt;Grupp&gt;"><path id="_Bana_49" data-name="&lt;Bana&gt;" class="cls-3" d="M327.57,614.58a10.79,10.79,0,0,1-7-19c39.92-33.86,31.34-84.5,31.25-85a10.79,10.79,0,0,1,21.24-3.82c.47,2.57,10.78,63.48-38.53,105.29A10.76,10.76,0,0,1,327.57,614.58Z" transform="translate(0 0.16)"/></g></g></g><g id="_Grupp_190" data-name="&lt;Grupp&gt;"><g id="_Grupp_191" data-name="&lt;Grupp&gt;"><g id="_Grupp_192" data-name="&lt;Grupp&gt;"><path id="_Bana_50" data-name="&lt;Bana&gt;" class="cls-2" d="M269.13,481.13c-13.22-16.76-39.41-51.56-56.08-57.14-41.71-13.94-77.79-24.35-77.79-24.35S74.34,444.4,110.06,575c0,0,72.21,31.8,129.78-10.13Z" transform="translate(0 0.16)"/></g></g><g id="_Grupp_193" data-name="&lt;Grupp&gt;"><g id="_Grupp_194" data-name="&lt;Grupp&gt;"><path id="_Bana_51" data-name="&lt;Bana&gt;" class="cls-1" d="M108.61,502.17s55.33,31,134.48,20.69L230,566.16s-103.24,27.44-118.2,14.1S91.25,499.45,108.61,502.17Z" transform="translate(0 0.16)"/></g></g><g id="_Grupp_195" data-name="&lt;Grupp&gt;"><g id="_Grupp_196" data-name="&lt;Grupp&gt;"><path id="_Stansad_bana_24" data-name="&lt;Stansad bana&gt;" class="cls-3" d="M169.73,597.41c-34.83,0-62.14-11.74-64-12.57a10.78,10.78,0,0,1-6.06-7C62.4,441.65,126.14,393,128.87,390.94a10.78,10.78,0,0,1,9.38-1.67c.36.1,36.78,10.63,78.22,24.49,17,5.68,37,29.9,57.73,56.35l3.4,4.34a10.81,10.81,0,0,1,1.72,10.25L250,568.4a10.77,10.77,0,0,1-3.83,5.16C221,591.89,193.61,597.41,169.73,597.41Zm-50.66-30.55c15.76,5.55,68.43,20.51,111.73-8.86L257,483.15c-10.69-13.65-35.19-44.85-47.36-48.92-31.43-10.51-59.9-19.07-71.66-22.55C126.38,423.45,93.38,467.32,119.07,566.86Z" transform="translate(0 0.16)"/></g></g></g></g></g></g></svg>